{
  "source": "C:\\Users\\Peter\\Desktop\\stuff\\MIUN\\quantitative_research\\video_compression\\videos\\BVI-HD\\BVI-HD_CDVL_videos\\ORIG\\FishAndRock_1920x1080_30fps.mp4",
  "output": "C:\\Users\\Peter\\Desktop\\stuff\\MIUN\\quantitative_research\\video_compression\\compressed_videos\\BVI-HD\\hevc\\4\\FishAndRock_1920x1080_30fps_hevc.mp4",
  "codec": "hevc",
  "ok": "Input #0, mov,mp4,m4a,3gp,3g2,mj2, from 'C:\\Users\\Peter\\Desktop\\stuff\\MIUN\\quantitative_research\\video_compression\\videos\\BVI-HD\\BVI-HD_CDVL_videos\\ORIG\\FishAndRock_1920x1080_30fps.mp4':\n  Metadata:\n    major_brand     : isom\n    minor_version   : 512\n    compatible_brands: isomiso2avc1mp41\n    encoder         : Lavf54.28.101\n  Duration: 00:00:05.00, start: 0.000000, bitrate: 251564 kb/s\n  Stream #0:0[0x1](und): Video: h264 (High 4:4:4 Predictive) (avc1 / 0x31637661), yuv420p(progressive), 1920x1080, 251561 kb/s, 30 fps, 30 tbr, 30 tbn (default)\n    Metadata:\n      handler_name    : VideoHandler\n      vendor_id       : [0][0][0][0]\n[out#0/mp4 @ 0000020c694a1700] Codec AVOption b:a (set bitrate (in bits/s)) has not been used for any stream. The most likely reason is either wrong type (e.g. a video option with no video streams) or that it is a private option of some decoder which was not actually used for any stream.\nStream mapping:\n  Stream #0:0 -> #0:0 (h264 (native) -> hevc (libx265))\nPress [q] to stop, [?] for help\n[libx265 @ 0000020c69f30180] Unknown option: \"aq-mode.\nx265 [info]: HEVC encoder version 4.1+190-8f11c33ac\nx265 [info]: build info [Windows][GCC 15.1.0][64 bit] 10bit\nx265 [info]: using cpu capabilities: MMX2 SSE2Fast LZCNT SSSE3 SSE4.2 AVX FMA3 BMI2 AVX2\nx265 [info]: Main 10 profile, Level-4 (Main tier)\nx265 [info]: Thread pool created using 12 threads\nx265 [info]: Slices                              : 1\nx265 [info]: frame threads / pool features       : 3 / wpp(17 rows)\nx265 [info]: Coding QT: max CU size, min CU size : 64 / 8\nx265 [info]: Residual QT: max TU size, max depth : 32 / 1 inter / 1 intra\nx265 [info]: ME / range / subpel / merge         : star / 57 / 3 / 3\nx265 [info]: Keyframe min / max / scenecut / bias  : 25 / 250 / 40 / 5.00 \nx265 [info]: Lookahead / bframes / badapt        : 25 / 4 / 2\nx265 [info]: b-pyramid / weightp / weightb       : 1 / 1 / 0\nx265 [info]: References / ref-limit  cu / depth  : 4 / on / on\nx265 [info]: AQ: mode / str / qg-size / cu-tree  : 2 / 1.0 / 32 / 1\nx265 [info]: Rate Control / qCompress            : ABR-4000 kbps / 0.60\nx265 [info]: VBV/HRD buffer / max-rate / init    : 4000 / 4000 / 0.750\nx265 [info]: tools: rect limit-modes rd=4 psy-rd=2.00 rdoq=2 psy-rdoq=1.00\nx265 [info]: tools: rskip mode=1 signhide tmvp strong-intra-smoothing lslices=4\nx265 [info]: tools: deblock sao dhdr10-info\nOutput #0, mp4, to 'C:\\Users\\Peter\\Desktop\\stuff\\MIUN\\quantitative_research\\video_compression\\compressed_videos\\BVI-HD\\hevc\\4\\FishAndRock_1920x1080_30fps_hevc.mp4':\n  Metadata:\n    major_brand     : isom\n    minor_version   : 512\n    compatible_brands: isomiso2avc1mp41\n    encoder         : Lavf62.3.100\n  Stream #0:0(und): Video: hevc (hev1 / 0x31766568), yuv420p10le(tv, progressive), 1920x1080, q=2-31, 4000 kb/s, 30 fps, 15360 tbn (default)\n    Metadata:\n      encoder         : Lavc62.11.100 libx265\n      handler_name    : VideoHandler\n      vendor_id       : [0][0][0][0]\n    Side data:\n      cpb: bitrate max/min/avg: 4000000/0/4000000 buffer size: 4000000 vbv_delay: N/A\nframe=    0 fps=0.0 q=0.0 size=       0KiB time=N/A bitrate=N/A speed=N/A elapsed=0:00:01.15    \nframe=    0 fps=0.0 q=0.0 size=       0KiB time=N/A bitrate=N/A speed=N/A elapsed=0:00:01.76    \nframe=    0 fps=0.0 q=0.0 size=       0KiB time=N/A bitrate=N/A speed=N/A elapsed=0:00:02.32    \nframe=    0 fps=0.0 q=0.0 size=       0KiB time=N/A bitrate=N/A speed=N/A elapsed=0:00:02.84    \nframe=    0 fps=0.0 q=0.0 size=       0KiB time=N/A bitrate=N/A speed=N/A elapsed=0:00:03.35    \nframe=    0 fps=0.0 q=0.0 size=       0KiB time=N/A bitrate=N/A speed=N/A elapsed=0:00:03.87    \nframe=    0 fps=0.0 q=0.0 size=       0KiB time=N/A bitrate=N/A speed=N/A elapsed=0:00:04.39    \nframe=    0 fps=0.0 q=0.0 size=       0KiB time=N/A bitrate=N/A speed=N/A elapsed=0:00:04.93    \nframe=    0 fps=0.0 q=0.0 size=       0KiB time=N/A bitrate=N/A speed=N/A elapsed=0:00:05.50    \nframe=    0 fps=0.0 q=0.0 size=       0KiB time=N/A bitrate=N/A speed=N/A elapsed=0:00:06.05    \nframe=    0 fps=0.0 q=0.0 size=       0KiB time=N/A bitrate=N/A speed=N/A elapsed=0:00:06.58    \nframe=    0 fps=0.0 q=0.0 size=       0KiB time=N/A bitrate=N/A speed=N/A elapsed=0:00:07.12    \nframe=    0 fps=0.0 q=0.0 size=       0KiB time=N/A bitrate=N/A speed=N/A elapsed=0:00:07.66    \nframe=    0 fps=0.0 q=0.0 size=       0KiB time=N/A bitrate=N/A speed=N/A elapsed=0:00:08.20    \nframe=    0 fps=0.0 q=0.0 size=       0KiB time=N/A bitrate=N/A speed=N/A elapsed=0:00:08.74    \nframe=    0 fps=0.0 q=0.0 size=       0KiB time=N/A bitrate=N/A speed=N/A elapsed=0:00:09.26    \nframe=    0 fps=0.0 q=0.0 size=       0KiB time=N/A bitrate=N/A speed=N/A elapsed=0:00:09.79    \nframe=    0 fps=0.0 q=0.0 size=       0KiB time=N/A bitrate=N/A speed=N/A elapsed=0:00:10.34    \nframe=    0 fps=0.0 q=0.0 size=       0KiB time=N/A bitrate=N/A speed=N/A elapsed=0:00:10.86    \nframe=    0 fps=0.0 q=0.0 size=       0KiB time=N/A bitrate=N/A speed=N/A elapsed=0:00:11.38    \nframe=    0 fps=0.0 q=0.0 size=       0KiB time=N/A bitrate=N/A speed=N/A elapsed=0:00:11.93    \nframe=    0 fps=0.0 q=0.0 size=       0KiB time=N/A bitrate=N/A speed=N/A elapsed=0:00:12.44    \nframe=    0 fps=0.0 q=0.0 size=       0KiB time=N/A bitrate=N/A speed=N/A elapsed=0:00:12.97    \nframe=    0 fps=0.0 q=0.0 size=       0KiB time=N/A bitrate=N/A speed=N/A elapsed=0:00:13.52    \nframe=    0 fps=0.0 q=0.0 size=       0KiB time=N/A bitrate=N/A speed=N/A elapsed=0:00:14.04    \nframe=    0 fps=0.0 q=0.0 size=       0KiB time=N/A bitrate=N/A speed=N/A elapsed=0:00:14.56    \nframe=    1 fps=0.1 q=30.1 size=       0KiB time=-00:00:00.03 bitrate=N/A speed=N/A elapsed=0:00:15.09    \nframe=    1 fps=0.1 q=30.1 size=       0KiB time=-00:00:00.03 bitrate=N/A speed=N/A elapsed=0:00:15.63    \nframe=    1 fps=0.1 q=30.1 size=       0KiB time=-00:00:00.03 bitrate=N/A speed=N/A elapsed=0:00:16.16    \nframe=    1 fps=0.1 q=30.1 size=       0KiB time=-00:00:00.03 bitrate=N/A speed=N/A elapsed=0:00:16.68    \nframe=    1 fps=0.1 q=30.1 size=       0KiB time=-00:00:00.03 bitrate=N/A speed=N/A elapsed=0:00:17.20    \nframe=    2 fps=0.1 q=33.1 size=       0KiB time=00:00:00.00 bitrate=N/A speed=   0x elapsed=0:00:17.71    \nframe=    2 fps=0.1 q=33.1 size=       0KiB time=00:00:00.00 bitrate=N/A speed=   0x elapsed=0:00:18.23    \nframe=    2 fps=0.1 q=33.1 size=       0KiB time=00:00:00.00 bitrate=N/A speed=   0x elapsed=0:00:18.76    \nframe=    4 fps=0.2 q=30.8 size=       0KiB time=00:00:00.06 bitrate=   5.3kbits/s speed=0.00346x elapsed=0:00:19.28    \nframe=    5 fps=0.3 q=33.6 size=       0KiB time=00:00:00.10 bitrate=   3.5kbits/s speed=0.00505x elapsed=0:00:19.81    \nframe=    5 fps=0.2 q=33.6 size=       0KiB time=00:00:00.10 bitrate=   3.5kbits/s speed=0.00491x elapsed=0:00:20.35    \nframe=    5 fps=0.2 q=33.6 size=       0KiB time=00:00:00.10 bitrate=   3.5kbits/s speed=0.00479x elapsed=0:00:20.86    \nframe=    5 fps=0.2 q=33.6 size=       0KiB time=00:00:00.10 bitrate=   3.5kbits/s speed=0.00467x elapsed=0:00:21.41    \nframe=    5 fps=0.2 q=33.6 size=       0KiB time=00:00:00.10 bitrate=   3.5kbits/s speed=0.00456x elapsed=0:00:21.94    \nframe=    5 fps=0.2 q=33.6 size=       0KiB time=00:00:00.10 bitrate=   3.5kbits/s speed=0.00445x elapsed=0:00:22.49    \nframe=    5 fps=0.2 q=33.6 size=       0KiB time=00:00:00.10 bitrate=   3.5kbits/s speed=0.00435x elapsed=0:00:23.01    \nframe=    6 fps=0.3 q=33.8 size=       0KiB time=00:00:00.13 bitrate=   2.6kbits/s speed=0.00567x elapsed=0:00:23.52    \nframe=    6 fps=0.2 q=33.8 size=       0KiB time=00:00:00.13 bitrate=   2.6kbits/s speed=0.00554x elapsed=0:00:24.05    \nframe=    6 fps=0.2 q=33.8 size=       0KiB time=00:00:00.13 bitrate=   2.6kbits/s speed=0.00543x elapsed=0:00:24.57    \nframe=    6 fps=0.2 q=33.8 size=       0KiB time=00:00:00.13 bitrate=   2.6kbits/s speed=0.00531x elapsed=0:00:25.10    \nframe=    6 fps=0.2 q=33.8 size=       0KiB time=00:00:00.13 bitrate=   2.6kbits/s speed=0.0052x elapsed=0:00:25.63    \nframe=    6 fps=0.2 q=33.8 size=       0KiB time=00:00:00.13 bitrate=   2.6kbits/s speed=0.00509x elapsed=0:00:26.17    \nframe=    7 fps=0.3 q=34.1 size=       0KiB time=00:00:00.16 bitrate=   2.1kbits/s speed=0.00625x elapsed=0:00:26.68    \nframe=    7 fps=0.3 q=34.1 size=       0KiB time=00:00:00.16 bitrate=   2.1kbits/s speed=0.00613x elapsed=0:00:27.20    \nframe=    8 fps=0.3 q=28.4 size=       0KiB time=00:00:00.20 bitrate=   1.8kbits/s speed=0.00721x elapsed=0:00:27.72    \nframe=    9 fps=0.3 q=31.0 size=       0KiB time=00:00:00.23 bitrate=   1.5kbits/s speed=0.00827x elapsed=0:00:28.22    \nframe=    9 fps=0.3 q=31.0 size=       0KiB time=00:00:00.23 bitrate=   1.5kbits/s speed=0.00812x elapsed=0:00:28.74    \nframe=    9 fps=0.3 q=31.0 size=       0KiB time=00:00:00.23 bitrate=   1.5kbits/s speed=0.00797x elapsed=0:00:29.27    \nframe=   10 fps=0.3 q=32.6 size=       0KiB time=00:00:00.26 bitrate=   1.3kbits/s speed=0.00894x elapsed=0:00:29.82    \nframe=   10 fps=0.3 q=32.6 size=       0KiB time=00:00:00.26 bitrate=   1.3kbits/s speed=0.00879x elapsed=0:00:30.34    \nframe=   11 fps=0.4 q=34.0 size=       0KiB time=00:00:00.30 bitrate=   1.2kbits/s speed=0.00972x elapsed=0:00:30.87    \nframe=   11 fps=0.4 q=34.0 size=       0KiB time=00:00:00.30 bitrate=   1.2kbits/s speed=0.00955x elapsed=0:00:31.40    \nframe=   11 fps=0.3 q=34.0 size=       0KiB time=00:00:00.30 bitrate=   1.2kbits/s speed=0.00939x elapsed=0:00:31.93    \nframe=   11 fps=0.3 q=34.0 size=       0KiB time=00:00:00.30 bitrate=   1.2kbits/s speed=0.00924x elapsed=0:00:32.47    \nframe=   11 fps=0.3 q=34.0 size=       0KiB time=00:00:00.30 bitrate=   1.2kbits/s speed=0.0091x elapsed=0:00:32.98    \nframe=   11 fps=0.3 q=34.0 size=       0KiB time=00:00:00.30 bitrate=   1.2kbits/s speed=0.00896x elapsed=0:00:33.49    \nframe=   11 fps=0.3 q=34.0 size=       0KiB time=00:00:00.30 bitrate=   1.2kbits/s speed=0.00882x elapsed=0:00:34.02    \nframe=   12 fps=0.3 q=27.7 size=       0KiB time=00:00:00.33 bitrate=   1.1kbits/s speed=0.00965x elapsed=0:00:34.54    \nframe=   12 fps=0.3 q=27.7 size=       0KiB time=00:00:00.33 bitrate=   1.1kbits/s speed=0.00951x elapsed=0:00:35.06    \nframe=   12 fps=0.3 q=27.7 size=       0KiB time=00:00:00.33 bitrate=   1.1kbits/s speed=0.00936x elapsed=0:00:35.59    \nframe=   13 fps=0.4 q=31.1 size=       0KiB time=00:00:00.36 bitrate=   1.0kbits/s speed=0.0101x elapsed=0:00:36.14    \nframe=   13 fps=0.4 q=31.1 size=       0KiB time=00:00:00.36 bitrate=   1.0kbits/s speed=0.01x elapsed=0:00:36.65    \nframe=   13 fps=0.3 q=31.1 size=       0KiB time=00:00:00.36 bitrate=   1.0kbits/s speed=0.00987x elapsed=0:00:37.16    \nframe=   13 fps=0.3 q=31.1 size=       0KiB time=00:00:00.36 bitrate=   1.0kbits/s speed=0.00973x elapsed=0:00:37.68    \nframe=   13 fps=0.3 q=31.1 size=       0KiB time=00:00:00.36 bitrate=   1.0kbits/s speed=0.00957x elapsed=0:00:38.30    \nframe=   13 fps=0.3 q=31.1 size=       0KiB time=00:00:00.36 bitrate=   1.0kbits/s speed=0.00943x elapsed=0:00:38.89    \nframe=   13 fps=0.3 q=31.1 size=       0KiB time=00:00:00.36 bitrate=   1.0kbits/s speed=0.00929x elapsed=0:00:39.48    \nframe=   13 fps=0.3 q=31.1 size=       0KiB time=00:00:00.36 bitrate=   1.0kbits/s speed=0.00916x elapsed=0:00:40.04    \nframe=   13 fps=0.3 q=31.1 size=       0KiB time=00:00:00.36 bitrate=   1.0kbits/s speed=0.00903x elapsed=0:00:40.61    \nframe=   13 fps=0.3 q=31.1 size=       0KiB time=00:00:00.36 bitrate=   1.0kbits/s speed=0.00889x elapsed=0:00:41.26    \nframe=   13 fps=0.3 q=31.1 size=       0KiB time=00:00:00.36 bitrate=   1.0kbits/s speed=0.00875x elapsed=0:00:41.88    \nframe=   13 fps=0.3 q=31.1 size=       0KiB time=00:00:00.36 bitrate=   1.0kbits/s speed=0.00864x elapsed=0:00:42.45    \nframe=   13 fps=0.3 q=31.1 size=       0KiB time=00:00:00.36 bitrate=   1.0kbits/s speed=0.00853x elapsed=0:00:43.00    \nframe=   13 fps=0.3 q=31.1 size=       0KiB time=00:00:00.36 bitrate=   1.0kbits/s speed=0.00842x elapsed=0:00:43.56    \nframe=   14 fps=0.3 q=32.7 size=       0KiB time=00:00:00.40 bitrate=   0.9kbits/s speed=0.00907x elapsed=0:00:44.10    \nframe=   14 fps=0.3 q=32.7 size=       0KiB time=00:00:00.40 bitrate=   0.9kbits/s speed=0.00896x elapsed=0:00:44.64    \nframe=   14 fps=0.3 q=32.7 size=       0KiB time=00:00:00.40 bitrate=   0.9kbits/s speed=0.00885x elapsed=0:00:45.20    \nframe=   14 fps=0.3 q=32.7 size=       0KiB time=00:00:00.40 bitrate=   0.9kbits/s speed=0.00875x elapsed=0:00:45.72    \nframe=   15 fps=0.3 q=33.1 size=       0KiB time=00:00:00.43 bitrate=   0.8kbits/s speed=0.00936x elapsed=0:00:46.27    \nframe=   16 fps=0.3 q=27.3 size=       0KiB time=00:00:00.46 bitrate=   0.8kbits/s speed=0.00997x elapsed=0:00:46.81    \nframe=   16 fps=0.3 q=27.3 size=       0KiB time=00:00:00.46 bitrate=   0.8kbits/s speed=0.00985x elapsed=0:00:47.39    \nframe=   16 fps=0.3 q=27.3 size=       0KiB time=00:00:00.46 bitrate=   0.8kbits/s speed=0.00973x elapsed=0:00:47.95    \nframe=   16 fps=0.3 q=27.3 size=       0KiB time=00:00:00.46 bitrate=   0.8kbits/s speed=0.00963x elapsed=0:00:48.47    \nframe=   17 fps=0.3 q=30.5 size=     256KiB time=00:00:00.50 bitrate=4195.0kbits/s speed=0.0102x elapsed=0:00:49.00    \nframe=   17 fps=0.3 q=30.5 size=     256KiB time=00:00:00.50 bitrate=4195.0kbits/s speed=0.0101x elapsed=0:00:49.51    \nframe=   17 fps=0.3 q=30.5 size=     256KiB time=00:00:00.50 bitrate=4195.0kbits/s speed=0.00999x elapsed=0:00:50.03    \nframe=   17 fps=0.3 q=30.5 size=     256KiB time=00:00:00.50 bitrate=4195.0kbits/s speed=0.00989x elapsed=0:00:50.53    \nframe=   18 fps=0.4 q=32.6 size=     256KiB time=00:00:00.53 bitrate=3932.8kbits/s speed=0.0104x elapsed=0:00:51.06    \nframe=   18 fps=0.3 q=32.6 size=     256KiB time=00:00:00.53 bitrate=3932.8kbits/s speed=0.0103x elapsed=0:00:51.60    \nframe=   18 fps=0.3 q=32.6 size=     256KiB time=00:00:00.53 bitrate=3932.8kbits/s speed=0.0102x elapsed=0:00:52.15    \nframe=   19 fps=0.4 q=32.6 size=     256KiB time=00:00:00.56 bitrate=3701.5kbits/s speed=0.0108x elapsed=0:00:52.69    \nframe=   19 fps=0.4 q=32.6 size=     256KiB time=00:00:00.56 bitrate=3701.5kbits/s speed=0.0107x elapsed=0:00:53.20    \nframe=   19 fps=0.4 q=32.6 size=     256KiB time=00:00:00.56 bitrate=3701.5kbits/s speed=0.0105x elapsed=0:00:53.74    \nframe=   20 fps=0.4 q=26.8 size=     256KiB time=00:00:00.60 bitrate=3495.8kbits/s speed=0.0111x elapsed=0:00:54.26    \nframe=   20 fps=0.4 q=26.8 size=     256KiB time=00:00:00.60 bitrate=3495.8kbits/s speed=0.0109x elapsed=0:00:54.79    \nframe=   20 fps=0.4 q=26.8 size=     256KiB time=00:00:00.60 bitrate=3495.8kbits/s speed=0.0108x elapsed=0:00:55.33    \nframe=   20 fps=0.4 q=26.8 size=     256KiB time=00:00:00.60 bitrate=3495.8kbits/s speed=0.0107x elapsed=0:00:55.85    \nframe=   20 fps=0.4 q=26.8 size=     256KiB time=00:00:00.60 bitrate=3495.8kbits/s speed=0.0106x elapsed=0:00:56.37    \nframe=   21 fps=0.4 q=31.5 size=     256KiB time=00:00:00.63 bitrate=3311.9kbits/s speed=0.0111x elapsed=0:00:56.89    \nframe=   21 fps=0.4 q=31.5 size=     256KiB time=00:00:00.63 bitrate=3311.9kbits/s speed=0.011x elapsed=0:00:57.42    \nframe=   21 fps=0.4 q=31.5 size=     256KiB time=00:00:00.63 bitrate=3311.9kbits/s speed=0.0109x elapsed=0:00:57.95    \nframe=   22 fps=0.4 q=32.2 size=     256KiB time=00:00:00.66 bitrate=3146.3kbits/s speed=0.0114x elapsed=0:00:58.49    \nframe=   22 fps=0.4 q=32.2 size=     256KiB time=00:00:00.66 bitrate=3146.3kbits/s speed=0.0113x elapsed=0:00:59.01    \nframe=   22 fps=0.4 q=32.2 size=     256KiB time=00:00:00.66 bitrate=3146.3kbits/s speed=0.0112x elapsed=0:00:59.52    \nframe=   22 fps=0.4 q=32.2 size=     256KiB time=00:00:00.66 bitrate=3146.3kbits/s speed=0.0111x elapsed=0:01:00.05    \nframe=   22 fps=0.4 q=32.2 size=     256KiB time=00:00:00.66 bitrate=3146.3kbits/s speed=0.011x elapsed=0:01:00.61    \nframe=   22 fps=0.4 q=32.2 size=     256KiB time=00:00:00.66 bitrate=3146.3kbits/s speed=0.0109x elapsed=0:01:01.15    \nframe=   22 fps=0.4 q=32.2 size=     256KiB time=00:00:00.66 bitrate=3146.3kbits/s speed=0.0108x elapsed=0:01:01.72    \nframe=   23 fps=0.4 q=26.7 size=     256KiB time=00:00:00.66 bitrate=3146.3kbits/s speed=0.0107x elapsed=0:01:02.29    \nframe=   23 fps=0.4 q=26.7 size=     256KiB time=00:00:00.70 bitrate=2996.4kbits/s speed=0.0111x elapsed=0:01:02.89    \nframe=   23 fps=0.4 q=26.7 size=     256KiB time=00:00:00.70 bitrate=2996.4kbits/s speed=0.011x elapsed=0:01:03.48    \nframe=   23 fps=0.4 q=26.7 size=     256KiB time=00:00:00.70 bitrate=2996.4kbits/s speed=0.0109x elapsed=0:01:04.02    \nframe=   24 fps=0.4 q=30.3 size=     256KiB time=00:00:00.73 bitrate=2860.2kbits/s speed=0.0114x elapsed=0:01:04.56    \nframe=   24 fps=0.4 q=30.3 size=     256KiB time=00:00:00.73 bitrate=2860.2kbits/s speed=0.0113x elapsed=0:01:05.08    \nframe=   24 fps=0.4 q=30.3 size=     256KiB time=00:00:00.73 bitrate=2860.2kbits/s speed=0.0112x elapsed=0:01:05.60    \nframe=   24 fps=0.4 q=30.3 size=     256KiB time=00:00:00.73 bitrate=2860.2kbits/s speed=0.0111x elapsed=0:01:06.13    \nframe=   24 fps=0.4 q=30.3 size=     256KiB time=00:00:00.73 bitrate=2860.2kbits/s speed=0.011x elapsed=0:01:06.68    \nframe=   24 fps=0.4 q=30.3 size=     256KiB time=00:00:00.73 bitrate=2860.2kbits/s speed=0.0109x elapsed=0:01:07.20    \nframe=   24 fps=0.4 q=30.3 size=     256KiB time=00:00:00.73 bitrate=2860.2kbits/s speed=0.0108x elapsed=0:01:07.72    \nframe=   24 fps=0.4 q=30.3 size=     256KiB time=00:00:00.73 bitrate=2860.2kbits/s speed=0.0107x elapsed=0:01:08.28    \nframe=   24 fps=0.3 q=30.3 size=     256KiB time=00:00:00.73 bitrate=2860.2kbits/s speed=0.0107x elapsed=0:01:08.83    \nframe=   24 fps=0.3 q=30.3 size=     256KiB time=00:00:00.73 bitrate=2860.2kbits/s speed=0.0106x elapsed=0:01:09.45    \nframe=   25 fps=0.4 q=32.3 size=     256KiB time=00:00:00.76 bitrate=2735.9kbits/s speed=0.0109x elapsed=0:01:10.03    \nframe=   25 fps=0.4 q=32.3 size=     256KiB time=00:00:00.76 bitrate=2735.9kbits/s speed=0.0109x elapsed=0:01:10.55    \nframe=   25 fps=0.4 q=32.3 size=     256KiB time=00:00:00.76 bitrate=2735.9kbits/s speed=0.0108x elapsed=0:01:11.08    \nframe=   25 fps=0.3 q=32.3 size=     256KiB time=00:00:00.76 bitrate=2735.9kbits/s speed=0.0107x elapsed=0:01:11.62    \nframe=   25 fps=0.3 q=32.3 size=     256KiB time=00:00:00.76 bitrate=2735.9kbits/s speed=0.0106x elapsed=0:01:12.18    \nframe=   25 fps=0.3 q=32.3 size=     256KiB time=00:00:00.76 bitrate=2735.9kbits/s speed=0.0105x elapsed=0:01:12.75    \nframe=   25 fps=0.3 q=32.3 size=     256KiB time=00:00:00.76 bitrate=2735.9kbits/s speed=0.0105x elapsed=0:01:13.30    \nframe=   26 fps=0.4 q=32.4 size=     256KiB time=00:00:00.80 bitrate=2621.9kbits/s speed=0.0108x elapsed=0:01:13.88    \nframe=   26 fps=0.3 q=32.4 size=     256KiB time=00:00:00.80 bitrate=2621.9kbits/s speed=0.0107x elapsed=0:01:14.43    \nframe=   26 fps=0.3 q=32.4 size=     256KiB time=00:00:00.80 bitrate=2621.9kbits/s speed=0.0107x elapsed=0:01:15.00    \nframe=   26 fps=0.3 q=32.4 size=     256KiB time=00:00:00.80 bitrate=2621.9kbits/s speed=0.0106x elapsed=0:01:15.54    \nframe=   27 fps=0.4 q=26.1 size=     256KiB time=00:00:00.83 bitrate=2517.0kbits/s speed=0.011x elapsed=0:01:16.07    \nframe=   27 fps=0.4 q=26.1 size=     256KiB time=00:00:00.83 bitrate=2517.0kbits/s speed=0.0109x elapsed=0:01:16.68    \nframe=   27 fps=0.3 q=26.1 size=     256KiB time=00:00:00.83 bitrate=2517.0kbits/s speed=0.0108x elapsed=0:01:17.28    \nframe=   27 fps=0.3 q=26.1 size=     256KiB time=00:00:00.83 bitrate=2517.0kbits/s speed=0.0107x elapsed=0:01:17.81    \nframe=   28 fps=0.4 q=29.8 size=     256KiB time=00:00:00.86 bitrate=2420.2kbits/s speed=0.0111x elapsed=0:01:18.33    \nframe=   28 fps=0.4 q=29.8 size=     256KiB time=00:00:00.86 bitrate=2420.2kbits/s speed=0.011x elapsed=0:01:18.86    \nframe=   28 fps=0.4 q=29.8 size=     256KiB time=00:00:00.86 bitrate=2420.2kbits/s speed=0.0109x elapsed=0:01:19.44    \nframe=   28 fps=0.4 q=29.8 size=     256KiB time=00:00:00.86 bitrate=2420.2kbits/s speed=0.0108x elapsed=0:01:19.96    \nframe=   28 fps=0.3 q=29.8 size=     256KiB time=00:00:00.86 bitrate=2420.2kbits/s speed=0.0108x elapsed=0:01:20.49    \nframe=   28 fps=0.3 q=29.8 size=     256KiB time=00:00:00.86 bitrate=2420.2kbits/s speed=0.0107x elapsed=0:01:21.04    \nframe=   28 fps=0.3 q=29.8 size=     256KiB time=00:00:00.86 bitrate=2420.2kbits/s speed=0.0106x elapsed=0:01:21.60    \nframe=   28 fps=0.3 q=29.8 size=     256KiB time=00:00:00.86 bitrate=2420.2kbits/s speed=0.0106x elapsed=0:01:22.12    \nframe=   29 fps=0.4 q=32.0 size=     256KiB time=00:00:00.90 bitrate=2330.6kbits/s speed=0.0109x elapsed=0:01:22.66    \nframe=   29 fps=0.3 q=32.0 size=     256KiB time=00:00:00.90 bitrate=2330.6kbits/s speed=0.0108x elapsed=0:01:23.16    \nframe=   29 fps=0.3 q=32.0 size=     256KiB time=00:00:00.90 bitrate=2330.6kbits/s speed=0.0108x elapsed=0:01:23.72    \nframe=   29 fps=0.3 q=32.0 size=     256KiB time=00:00:00.90 bitrate=2330.6kbits/s speed=0.0107x elapsed=0:01:24.26    \nframe=   30 fps=0.4 q=32.3 size=     256KiB time=00:00:00.93 bitrate=2247.3kbits/s speed=0.011x elapsed=0:01:24.82    \nframe=   30 fps=0.4 q=32.3 size=     256KiB time=00:00:00.93 bitrate=2247.3kbits/s speed=0.0109x elapsed=0:01:25.37    \nframe=   30 fps=0.3 q=32.3 size=     256KiB time=00:00:00.93 bitrate=2247.3kbits/s speed=0.0109x elapsed=0:01:25.95    \nframe=   30 fps=0.3 q=32.3 size=     256KiB time=00:00:00.93 bitrate=2247.3kbits/s speed=0.0108x elapsed=0:01:26.53    \nframe=   30 fps=0.3 q=32.3 size=     256KiB time=00:00:00.93 bitrate=2247.3kbits/s speed=0.0107x elapsed=0:01:27.08    \nframe=   30 fps=0.3 q=32.3 size=     256KiB time=00:00:00.93 bitrate=2247.3kbits/s speed=0.0106x elapsed=0:01:27.68    \nframe=   30 fps=0.3 q=32.3 size=     256KiB time=00:00:00.93 bitrate=2247.3kbits/s speed=0.0106x elapsed=0:01:28.29    \nframe=   30 fps=0.3 q=32.3 size=     256KiB time=00:00:00.93 bitrate=2247.3kbits/s speed=0.0105x elapsed=0:01:28.88    \nframe=   30 fps=0.3 q=32.3 size=     256KiB time=00:00:00.93 bitrate=2247.3kbits/s speed=0.0104x elapsed=0:01:29.45    \nframe=   31 fps=0.3 q=26.1 size=     256KiB time=00:00:00.96 bitrate=2169.8kbits/s speed=0.0107x elapsed=0:01:30.02    \nframe=   32 fps=0.4 q=29.6 size=     256KiB time=00:00:01.00 bitrate=2097.5kbits/s speed=0.011x elapsed=0:01:30.56    \nframe=   32 fps=0.4 q=29.6 size=     256KiB time=00:00:01.00 bitrate=2097.5kbits/s speed=0.011x elapsed=0:01:31.10    \nframe=   32 fps=0.3 q=29.6 size=     256KiB time=00:00:01.00 bitrate=2097.5kbits/s speed=0.0109x elapsed=0:01:31.66    \nframe=   32 fps=0.3 q=29.6 size=     256KiB time=00:00:01.00 bitrate=2097.5kbits/s speed=0.0108x elapsed=0:01:32.22    \nframe=   32 fps=0.3 q=29.6 size=     256KiB time=00:00:01.00 bitrate=2097.5kbits/s speed=0.0108x elapsed=0:01:32.76    \nframe=   32 fps=0.3 q=29.6 size=     256KiB time=00:00:01.00 bitrate=2097.5kbits/s speed=0.0107x elapsed=0:01:33.28    \nframe=   32 fps=0.3 q=29.6 size=     256KiB time=00:00:01.00 bitrate=2097.5kbits/s speed=0.0107x elapsed=0:01:33.81    \nframe=   32 fps=0.3 q=29.6 size=     256KiB time=00:00:01.00 bitrate=2097.5kbits/s speed=0.0106x elapsed=0:01:34.34    \nframe=   33 fps=0.3 q=32.0 size=     256KiB time=00:00:01.03 bitrate=2029.8kbits/s speed=0.0109x elapsed=0:01:34.87    \nframe=   33 fps=0.3 q=32.0 size=     256KiB time=00:00:01.03 bitrate=2029.8kbits/s speed=0.0108x elapsed=0:01:35.41    \nframe=   34 fps=0.4 q=31.9 size=     256KiB time=00:00:01.06 bitrate=1966.4kbits/s speed=0.0111x elapsed=0:01:35.97    \nframe=   34 fps=0.4 q=31.9 size=     256KiB time=00:00:01.06 bitrate=1966.4kbits/s speed=0.0111x elapsed=0:01:36.49    \nframe=   34 fps=0.4 q=31.9 size=     256KiB time=00:00:01.06 bitrate=1966.4kbits/s speed=0.011x elapsed=0:01:37.03    \nframe=   35 fps=0.4 q=25.8 size=     512KiB time=00:00:01.10 bitrate=3813.3kbits/s speed=0.0113x elapsed=0:01:37.55    \nframe=   35 fps=0.4 q=25.8 size=     512KiB time=00:00:01.10 bitrate=3813.3kbits/s speed=0.0112x elapsed=0:01:38.07    \nframe=   35 fps=0.4 q=25.8 size=     512KiB time=00:00:01.10 bitrate=3813.3kbits/s speed=0.0112x elapsed=0:01:38.60    \nframe=   35 fps=0.4 q=25.8 size=     512KiB time=00:00:01.10 bitrate=3813.3kbits/s speed=0.0111x elapsed=0:01:39.13    \nframe=   35 fps=0.4 q=25.8 size=     512KiB time=00:00:01.10 bitrate=3813.3kbits/s speed=0.011x elapsed=0:01:39.66    \nframe=   35 fps=0.3 q=25.8 size=     512KiB time=00:00:01.10 bitrate=3813.3kbits/s speed=0.011x elapsed=0:01:40.19    \nframe=   36 fps=0.4 q=29.3 size=     512KiB time=00:00:01.13 bitrate=3701.2kbits/s speed=0.0113x elapsed=0:01:40.72    \nframe=   36 fps=0.4 q=29.3 size=     512KiB time=00:00:01.13 bitrate=3701.2kbits/s speed=0.0112x elapsed=0:01:41.27    \nframe=   37 fps=0.4 q=31.8 size=     512KiB time=00:00:01.16 bitrate=3595.4kbits/s speed=0.0115x elapsed=0:01:41.80    \nframe=   37 fps=0.4 q=31.8 size=     512KiB time=00:00:01.16 bitrate=3595.4kbits/s speed=0.0114x elapsed=0:01:42.32    \nframe=   38 fps=0.4 q=26.0 size=     512KiB time=00:00:01.20 bitrate=3495.5kbits/s speed=0.0117x elapsed=0:01:42.85    \nframe=   38 fps=0.4 q=26.0 size=     512KiB time=00:00:01.20 bitrate=3495.5kbits/s speed=0.0116x elapsed=0:01:43.37    \nframe=   39 fps=0.4 q=29.6 size=     512KiB time=00:00:01.23 bitrate=3401.1kbits/s speed=0.0119x elapsed=0:01:43.94    \nframe=   39 fps=0.4 q=29.6 size=     512KiB time=00:00:01.23 bitrate=3401.1kbits/s speed=0.0118x elapsed=0:01:44.49    \nframe=   39 fps=0.4 q=29.6 size=     512KiB time=00:00:01.23 bitrate=3401.1kbits/s speed=0.0117x elapsed=0:01:45.08    \nframe=   39 fps=0.4 q=29.6 size=     512KiB time=00:00:01.23 bitrate=3401.1kbits/s speed=0.0117x elapsed=0:01:45.69    \nframe=   39 fps=0.4 q=29.6 size=     512KiB time=00:00:01.23 bitrate=3401.1kbits/s speed=0.0116x elapsed=0:01:46.28    \nframe=   39 fps=0.4 q=29.6 size=     512KiB time=00:00:01.23 bitrate=3401.1kbits/s speed=0.0115x elapsed=0:01:46.87    \nframe=   40 fps=0.4 q=31.9 size=     512KiB time=00:00:01.26 bitrate=3311.6kbits/s speed=0.0118x elapsed=0:01:47.44    \nframe=   40 fps=0.4 q=31.9 size=     512KiB time=00:00:01.26 bitrate=3311.6kbits/s speed=0.0117x elapsed=0:01:48.02    \nframe=   40 fps=0.4 q=31.9 size=     512KiB time=00:00:01.26 bitrate=3311.6kbits/s speed=0.0117x elapsed=0:01:48.55    \nframe=   40 fps=0.4 q=31.9 size=     512KiB time=00:00:01.26 bitrate=3311.6kbits/s speed=0.0116x elapsed=0:01:49.09    \nframe=   40 fps=0.4 q=31.9 size=     512KiB time=00:00:01.26 bitrate=3311.6kbits/s speed=0.0116x elapsed=0:01:49.63    \nframe=   40 fps=0.4 q=31.9 size=     512KiB time=00:00:01.26 bitrate=3311.6kbits/s speed=0.0115x elapsed=0:01:50.23    \nframe=   40 fps=0.4 q=31.9 size=     512KiB time=00:00:01.26 bitrate=3311.6kbits/s speed=0.0114x elapsed=0:01:50.77    \nframe=   40 fps=0.4 q=31.9 size=     512KiB time=00:00:01.26 bitrate=3311.6kbits/s speed=0.0114x elapsed=0:01:51.31    \nframe=   40 fps=0.4 q=31.9 size=     512KiB time=00:00:01.26 bitrate=3311.6kbits/s speed=0.0113x elapsed=0:01:51.89    \nframe=   40 fps=0.4 q=31.9 size=     512KiB time=00:00:01.26 bitrate=3311.6kbits/s speed=0.0113x elapsed=0:01:52.45    \nframe=   41 fps=0.4 q=31.8 size=     512KiB time=00:00:01.30 bitrate=3226.7kbits/s speed=0.0115x elapsed=0:01:52.99    \nframe=   41 fps=0.4 q=31.8 size=     512KiB time=00:00:01.30 bitrate=3226.7kbits/s speed=0.0115x elapsed=0:01:53.51    \nframe=   41 fps=0.4 q=31.8 size=     512KiB time=00:00:01.30 bitrate=3226.7kbits/s speed=0.0114x elapsed=0:01:54.08    \nframe=   41 fps=0.4 q=31.8 size=     512KiB time=00:00:01.30 bitrate=3226.7kbits/s speed=0.0113x elapsed=0:01:54.64    \nframe=   41 fps=0.4 q=31.8 size=     512KiB time=00:00:01.30 bitrate=3226.7kbits/s speed=0.0113x elapsed=0:01:55.23    \nframe=   42 fps=0.4 q=25.7 size=     512KiB time=00:00:01.33 bitrate=3146.0kbits/s speed=0.0115x elapsed=0:01:55.77    \nframe=   42 fps=0.4 q=25.7 size=     512KiB time=00:00:01.33 bitrate=3146.0kbits/s speed=0.0115x elapsed=0:01:56.32    \nframe=   43 fps=0.4 q=28.9 size=     512KiB time=00:00:01.36 bitrate=3069.3kbits/s speed=0.0117x elapsed=0:01:56.91    \nframe=   43 fps=0.4 q=28.9 size=     512KiB time=00:00:01.36 bitrate=3069.3kbits/s speed=0.0116x elapsed=0:01:57.49    \nframe=   43 fps=0.4 q=28.9 size=     512KiB time=00:00:01.36 bitrate=3069.3kbits/s speed=0.0116x elapsed=0:01:58.01    \nframe=   43 fps=0.4 q=28.9 size=     512KiB time=00:00:01.36 bitrate=3069.3kbits/s speed=0.0115x elapsed=0:01:58.54    \nframe=   43 fps=0.4 q=28.9 size=     512KiB time=00:00:01.36 bitrate=3069.3kbits/s speed=0.0115x elapsed=0:01:59.07    \nframe=   43 fps=0.4 q=28.9 size=     512KiB time=00:00:01.36 bitrate=3069.3kbits/s speed=0.0114x elapsed=0:01:59.62    \nframe=   43 fps=0.4 q=28.9 size=     512KiB time=00:00:01.36 bitrate=3069.3kbits/s speed=0.0114x elapsed=0:02:00.14    \nframe=   44 fps=0.4 q=32.3 size=     512KiB time=00:00:01.40 bitrate=2996.2kbits/s speed=0.0116x elapsed=0:02:00.72    \nframe=   44 fps=0.4 q=32.3 size=     512KiB time=00:00:01.40 bitrate=2996.2kbits/s speed=0.0115x elapsed=0:02:01.27    \nframe=   44 fps=0.4 q=32.3 size=     512KiB time=00:00:01.40 bitrate=2996.2kbits/s speed=0.0115x elapsed=0:02:01.81    \nframe=   44 fps=0.4 q=32.3 size=     512KiB time=00:00:01.40 bitrate=2996.2kbits/s speed=0.0114x elapsed=0:02:02.38    \nframe=   44 fps=0.4 q=32.3 size=     512KiB time=00:00:01.40 bitrate=2996.2kbits/s speed=0.0114x elapsed=0:02:02.93    \nframe=   44 fps=0.4 q=32.3 size=     512KiB time=00:00:01.40 bitrate=2996.2kbits/s speed=0.0113x elapsed=0:02:03.51    \nframe=   44 fps=0.4 q=32.3 size=     512KiB time=00:00:01.40 bitrate=2996.2kbits/s speed=0.0113x elapsed=0:02:04.08    \nframe=   44 fps=0.4 q=32.3 size=     512KiB time=00:00:01.40 bitrate=2996.2kbits/s speed=0.0112x elapsed=0:02:04.62    \nframe=   44 fps=0.4 q=32.3 size=     512KiB time=00:00:01.40 bitrate=2996.2kbits/s speed=0.0112x elapsed=0:02:05.19    \nframe=   44 fps=0.3 q=32.3 size=     512KiB time=00:00:01.40 bitrate=2996.2kbits/s speed=0.0111x elapsed=0:02:05.73    \nframe=   44 fps=0.3 q=32.3 size=     512KiB time=00:00:01.40 bitrate=2996.2kbits/s speed=0.0111x elapsed=0:02:06.29    \nframe=   44 fps=0.3 q=32.3 size=     512KiB time=00:00:01.40 bitrate=2996.2kbits/s speed=0.011x elapsed=0:02:06.82    \nframe=   44 fps=0.3 q=32.3 size=     512KiB time=00:00:01.40 bitrate=2996.2kbits/s speed=0.011x elapsed=0:02:07.35    \nframe=   45 fps=0.4 q=31.5 size=     512KiB time=00:00:01.43 bitrate=2926.5kbits/s speed=0.0112x elapsed=0:02:07.88    \nframe=   45 fps=0.4 q=31.5 size=     512KiB time=00:00:01.43 bitrate=2926.5kbits/s speed=0.0112x elapsed=0:02:08.40    \nframe=   45 fps=0.3 q=31.5 size=     512KiB time=00:00:01.43 bitrate=2926.5kbits/s speed=0.0111x elapsed=0:02:08.94    \nframe=   45 fps=0.3 q=31.5 size=     512KiB time=00:00:01.43 bitrate=2926.5kbits/s speed=0.0111x elapsed=0:02:09.55    \nframe=   45 fps=0.3 q=31.5 size=     512KiB time=00:00:01.43 bitrate=2926.5kbits/s speed=0.011x elapsed=0:02:10.11    \nframe=   45 fps=0.3 q=31.5 size=     512KiB time=00:00:01.43 bitrate=2926.5kbits/s speed=0.011x elapsed=0:02:10.73    \nframe=   45 fps=0.3 q=31.5 size=     512KiB time=00:00:01.43 bitrate=2926.5kbits/s speed=0.0109x elapsed=0:02:11.33    \nframe=   45 fps=0.3 q=31.5 size=     512KiB time=00:00:01.43 bitrate=2926.5kbits/s speed=0.0109x elapsed=0:02:11.96    \nframe=   45 fps=0.3 q=31.5 size=     512KiB time=00:00:01.43 bitrate=2926.5kbits/s speed=0.0108x elapsed=0:02:12.66    \nframe=   45 fps=0.3 q=31.5 size=     512KiB time=00:00:01.43 bitrate=2926.5kbits/s speed=0.0108x elapsed=0:02:13.26    \nframe=   45 fps=0.3 q=31.5 size=     512KiB time=00:00:01.43 bitrate=2926.5kbits/s speed=0.0107x elapsed=0:02:13.84    \nframe=   45 fps=0.3 q=31.5 size=     512KiB time=00:00:01.43 bitrate=2926.5kbits/s speed=0.0107x elapsed=0:02:14.49    \nframe=   46 fps=0.3 q=31.5 size=     512KiB time=00:00:01.46 bitrate=2860.0kbits/s speed=0.0109x elapsed=0:02:15.07    \nframe=   46 fps=0.3 q=31.5 size=     512KiB time=00:00:01.46 bitrate=2860.0kbits/s speed=0.0108x elapsed=0:02:15.67    \nframe=   46 fps=0.3 q=31.5 size=     512KiB time=00:00:01.46 bitrate=2860.0kbits/s speed=0.0108x elapsed=0:02:16.25    \nframe=   46 fps=0.3 q=31.5 size=     512KiB time=00:00:01.46 bitrate=2860.0kbits/s speed=0.0107x elapsed=0:02:16.84    \nframe=   46 fps=0.3 q=31.5 size=     512KiB time=00:00:01.46 bitrate=2860.0kbits/s speed=0.0107x elapsed=0:02:17.41    \nframe=   47 fps=0.3 q=25.6 size=     512KiB time=00:00:01.50 bitrate=2796.4kbits/s speed=0.0109x elapsed=0:02:17.98    \nframe=   47 fps=0.3 q=25.6 size=     512KiB time=00:00:01.50 bitrate=2796.4kbits/s speed=0.0108x elapsed=0:02:18.52    \nframe=   47 fps=0.3 q=25.6 size=     512KiB time=00:00:01.50 bitrate=2796.4kbits/s speed=0.0108x elapsed=0:02:19.09    \nframe=   47 fps=0.3 q=25.6 size=     512KiB time=00:00:01.50 bitrate=2796.4kbits/s speed=0.0107x elapsed=0:02:19.62    \nframe=   47 fps=0.3 q=25.6 size=     512KiB time=00:00:01.50 bitrate=2796.4kbits/s speed=0.0107x elapsed=0:02:20.18    \nframe=   47 fps=0.3 q=25.6 size=     512KiB time=00:00:01.50 bitrate=2796.4kbits/s speed=0.0107x elapsed=0:02:20.71    \nframe=   48 fps=0.3 q=29.7 size=     512KiB time=00:00:01.53 bitrate=2735.6kbits/s speed=0.0109x elapsed=0:02:21.24    \nframe=   48 fps=0.3 q=29.7 size=     512KiB time=00:00:01.53 bitrate=2735.6kbits/s speed=0.0108x elapsed=0:02:21.78    \nframe=   48 fps=0.3 q=29.7 size=     512KiB time=00:00:01.53 bitrate=2735.6kbits/s speed=0.0108x elapsed=0:02:22.30    \nframe=   49 fps=0.3 q=32.1 size=     512KiB time=00:00:01.56 bitrate=2677.4kbits/s speed=0.011x elapsed=0:02:22.83    \nframe=   49 fps=0.3 q=32.1 size=     512KiB time=00:00:01.56 bitrate=2677.4kbits/s speed=0.0109x elapsed=0:02:23.36    \nframe=   50 fps=0.3 q=25.7 size=     512KiB time=00:00:01.60 bitrate=2621.7kbits/s speed=0.0111x elapsed=0:02:23.89    \nframe=   51 fps=0.4 q=29.3 size=     768KiB time=00:00:01.63 bitrate=3852.1kbits/s speed=0.0113x elapsed=0:02:24.40    \nframe=   51 fps=0.4 q=29.3 size=     768KiB time=00:00:01.63 bitrate=3852.1kbits/s speed=0.0113x elapsed=0:02:24.94    \nframe=   51 fps=0.4 q=29.3 size=     768KiB time=00:00:01.63 bitrate=3852.1kbits/s speed=0.0112x elapsed=0:02:25.55    \nframe=   51 fps=0.3 q=29.3 size=     768KiB time=00:00:01.63 bitrate=3852.1kbits/s speed=0.0112x elapsed=0:02:26.08    \nframe=   51 fps=0.3 q=29.3 size=     768KiB time=00:00:01.63 bitrate=3852.1kbits/s speed=0.0111x elapsed=0:02:26.60    \nframe=   51 fps=0.3 q=29.3 size=     768KiB time=00:00:01.63 bitrate=3852.1kbits/s speed=0.0111x elapsed=0:02:27.13    \nframe=   51 fps=0.3 q=29.3 size=     768KiB time=00:00:01.63 bitrate=3852.1kbits/s speed=0.0111x elapsed=0:02:27.66    \nframe=   51 fps=0.3 q=29.3 size=     768KiB time=00:00:01.63 bitrate=3852.1kbits/s speed=0.011x elapsed=0:02:28.18    \nframe=   52 fps=0.3 q=31.3 size=     768KiB time=00:00:01.66 bitrate=3775.1kbits/s speed=0.0112x elapsed=0:02:28.73    \nframe=   52 fps=0.3 q=31.3 size=     768KiB time=00:00:01.66 bitrate=3775.1kbits/s speed=0.0112x elapsed=0:02:29.28    \nframe=   52 fps=0.3 q=31.3 size=     768KiB time=00:00:01.66 bitrate=3775.1kbits/s speed=0.0111x elapsed=0:02:29.82    \nframe=   52 fps=0.3 q=31.3 size=     768KiB time=00:00:01.66 bitrate=3775.1kbits/s speed=0.0111x elapsed=0:02:30.33    \nframe=   52 fps=0.3 q=31.3 size=     768KiB time=00:00:01.66 bitrate=3775.1kbits/s speed=0.011x elapsed=0:02:30.87    \nframe=   53 fps=0.4 q=31.3 size=     768KiB time=00:00:01.70 bitrate=3701.1kbits/s speed=0.0112x elapsed=0:02:31.38    \nframe=   53 fps=0.3 q=31.3 size=     768KiB time=00:00:01.70 bitrate=3701.1kbits/s speed=0.0112x elapsed=0:02:31.91    \nframe=   54 fps=0.4 q=25.7 size=     768KiB time=00:00:01.73 bitrate=3629.9kbits/s speed=0.0114x elapsed=0:02:32.44    \nframe=   54 fps=0.4 q=25.7 size=     768KiB time=00:00:01.73 bitrate=3629.9kbits/s speed=0.0113x elapsed=0:02:32.98    \nframe=   54 fps=0.4 q=25.7 size=     768KiB time=00:00:01.73 bitrate=3629.9kbits/s speed=0.0113x elapsed=0:02:33.51    \nframe=   55 fps=0.4 q=28.2 size=     768KiB time=00:00:01.76 bitrate=3561.4kbits/s speed=0.0115x elapsed=0:02:34.03    \nframe=   55 fps=0.4 q=28.2 size=     768KiB time=00:00:01.76 bitrate=3561.4kbits/s speed=0.0114x elapsed=0:02:34.56    \nframe=   56 fps=0.4 q=31.4 size=     768KiB time=00:00:01.80 bitrate=3495.4kbits/s speed=0.0116x elapsed=0:02:35.08    \nframe=   56 fps=0.4 q=31.4 size=     768KiB time=00:00:01.80 bitrate=3495.4kbits/s speed=0.0116x elapsed=0:02:35.61    \nframe=   56 fps=0.4 q=31.4 size=     768KiB time=00:00:01.80 bitrate=3495.4kbits/s speed=0.0115x elapsed=0:02:36.14    \nframe=   56 fps=0.4 q=31.4 size=     768KiB time=00:00:01.80 bitrate=3495.4kbits/s speed=0.0115x elapsed=0:02:36.66    \nframe=   56 fps=0.4 q=31.4 size=     768KiB time=00:00:01.80 bitrate=3495.4kbits/s speed=0.0115x elapsed=0:02:37.18    \nframe=   56 fps=0.4 q=31.4 size=     768KiB time=00:00:01.80 bitrate=3495.4kbits/s speed=0.0114x elapsed=0:02:37.70    \nframe=   56 fps=0.4 q=31.4 size=     768KiB time=00:00:01.80 bitrate=3495.4kbits/s speed=0.0114x elapsed=0:02:38.24    \nframe=   57 fps=0.4 q=30.9 size=     768KiB time=00:00:01.83 bitrate=3431.9kbits/s speed=0.0115x elapsed=0:02:38.78    \nframe=   57 fps=0.4 q=30.9 size=     768KiB time=00:00:01.83 bitrate=3431.9kbits/s speed=0.0115x elapsed=0:02:39.32    \nframe=   57 fps=0.4 q=30.9 size=     768KiB time=00:00:01.83 bitrate=3431.9kbits/s speed=0.0115x elapsed=0:02:39.86    \nframe=   57 fps=0.4 q=30.9 size=     768KiB time=00:00:01.83 bitrate=3431.9kbits/s speed=0.0114x elapsed=0:02:40.40    \nframe=   57 fps=0.4 q=30.9 size=     768KiB time=00:00:01.83 bitrate=3431.9kbits/s speed=0.0114x elapsed=0:02:40.92    \nframe=   57 fps=0.4 q=30.9 size=     768KiB time=00:00:01.83 bitrate=3431.9kbits/s speed=0.0114x elapsed=0:02:41.45    \nframe=   58 fps=0.4 q=31.1 size=     768KiB time=00:00:01.86 bitrate=3370.6kbits/s speed=0.0115x elapsed=0:02:41.98    \nframe=   58 fps=0.4 q=31.1 size=     768KiB time=00:00:01.86 bitrate=3370.6kbits/s speed=0.0115x elapsed=0:02:42.52    \nframe=   58 fps=0.4 q=31.1 size=     768KiB time=00:00:01.86 bitrate=3370.6kbits/s speed=0.0114x elapsed=0:02:43.06    \nframe=   60 fps=0.4 q=29.0 size=     768KiB time=00:00:01.93 bitrate=3254.4kbits/s speed=0.0118x elapsed=0:02:43.58    \nframe=   60 fps=0.4 q=29.0 size=     768KiB time=00:00:01.93 bitrate=3254.4kbits/s speed=0.0118x elapsed=0:02:44.13    \nframe=   61 fps=0.4 q=31.7 size=     768KiB time=00:00:01.96 bitrate=3199.2kbits/s speed=0.0119x elapsed=0:02:44.66    \nframe=   61 fps=0.4 q=31.7 size=     768KiB time=00:00:01.96 bitrate=3199.2kbits/s speed=0.0119x elapsed=0:02:45.18    \nframe=   61 fps=0.4 q=31.7 size=     768KiB time=00:00:01.96 bitrate=3199.2kbits/s speed=0.0119x elapsed=0:02:45.71    \nframe=   61 fps=0.4 q=31.7 size=     768KiB time=00:00:01.96 bitrate=3199.2kbits/s speed=0.0118x elapsed=0:02:46.23    \nframe=   61 fps=0.4 q=31.7 size=     768KiB time=00:00:01.96 bitrate=3199.2kbits/s speed=0.0118x elapsed=0:02:46.75    \nframe=   62 fps=0.4 q=31.9 size=     768KiB time=00:00:02.00 bitrate=3145.9kbits/s speed=0.012x elapsed=0:02:47.29    \nframe=   62 fps=0.4 q=31.9 size=     768KiB time=00:00:02.00 bitrate=3145.9kbits/s speed=0.0119x elapsed=0:02:47.83    \nframe=   62 fps=0.4 q=31.9 size=     768KiB time=00:00:02.00 bitrate=3145.9kbits/s speed=0.0119x elapsed=0:02:48.34    \nframe=   62 fps=0.4 q=31.9 size=     768KiB time=00:00:02.00 bitrate=3145.9kbits/s speed=0.0118x elapsed=0:02:48.86    \nframe=   62 fps=0.4 q=31.9 size=     768KiB time=00:00:02.00 bitrate=3145.9kbits/s speed=0.0118x elapsed=0:02:49.39    \nframe=   63 fps=0.4 q=25.4 size=     768KiB time=00:00:02.03 bitrate=3094.3kbits/s speed=0.012x elapsed=0:02:49.92    \nframe=   63 fps=0.4 q=25.4 size=     768KiB time=00:00:02.03 bitrate=3094.3kbits/s speed=0.0119x elapsed=0:02:50.44    \nframe=   63 fps=0.4 q=25.4 size=     768KiB time=00:00:02.03 bitrate=3094.3kbits/s speed=0.0119x elapsed=0:02:50.98    \nframe=   64 fps=0.4 q=29.3 size=     768KiB time=00:00:02.06 bitrate=3044.4kbits/s speed=0.0121x elapsed=0:02:51.50    \nframe=   64 fps=0.4 q=29.3 size=     768KiB time=00:00:02.06 bitrate=3044.4kbits/s speed=0.012x elapsed=0:02:52.03    \nframe=   64 fps=0.4 q=29.3 size=     768KiB time=00:00:02.06 bitrate=3044.4kbits/s speed=0.012x elapsed=0:02:52.58    \nframe=   64 fps=0.4 q=29.3 size=     768KiB time=00:00:02.06 bitrate=3044.4kbits/s speed=0.0119x elapsed=0:02:53.11    \nframe=   65 fps=0.4 q=32.4 size=     768KiB time=00:00:02.10 bitrate=2996.1kbits/s speed=0.0121x elapsed=0:02:53.65    \nframe=   65 fps=0.4 q=32.4 size=     768KiB time=00:00:02.10 bitrate=2996.1kbits/s speed=0.0121x elapsed=0:02:54.17    \nframe=   65 fps=0.4 q=32.4 size=     768KiB time=00:00:02.10 bitrate=2996.1kbits/s speed=0.012x elapsed=0:02:54.70    \nframe=   66 fps=0.4 q=32.0 size=     768KiB time=00:00:02.13 bitrate=2949.3kbits/s speed=0.0122x elapsed=0:02:55.23    \nframe=   67 fps=0.4 q=25.4 size=    1024KiB time=00:00:02.16 bitrate=3871.8kbits/s speed=0.0123x elapsed=0:02:55.77    \nframe=   67 fps=0.4 q=25.4 size=    1024KiB time=00:00:02.16 bitrate=3871.8kbits/s speed=0.0123x elapsed=0:02:56.33    \nframe=   67 fps=0.4 q=25.4 size=    1024KiB time=00:00:02.16 bitrate=3871.8kbits/s speed=0.0122x elapsed=0:02:56.91    \nframe=   67 fps=0.4 q=25.4 size=    1024KiB time=00:00:02.16 bitrate=3871.8kbits/s speed=0.0122x elapsed=0:02:57.49    \nframe=   67 fps=0.4 q=25.4 size=    1024KiB time=00:00:02.16 bitrate=3871.8kbits/s speed=0.0122x elapsed=0:02:58.11    \nframe=   67 fps=0.4 q=25.4 size=    1024KiB time=00:00:02.16 bitrate=3871.8kbits/s speed=0.0121x elapsed=0:02:58.67    \nframe=   67 fps=0.4 q=25.4 size=    1024KiB time=00:00:02.16 bitrate=3871.8kbits/s speed=0.0121x elapsed=0:02:59.22    \nframe=   68 fps=0.4 q=29.7 size=    1024KiB time=00:00:02.20 bitrate=3813.2kbits/s speed=0.0122x elapsed=0:02:59.74    \nframe=   68 fps=0.4 q=29.7 size=    1024KiB time=00:00:02.20 bitrate=3813.2kbits/s speed=0.0122x elapsed=0:03:00.29    \nframe=   68 fps=0.4 q=29.7 size=    1024KiB time=00:00:02.20 bitrate=3813.2kbits/s speed=0.0122x elapsed=0:03:00.89    \nframe=   68 fps=0.4 q=29.7 size=    1024KiB time=00:00:02.20 bitrate=3813.2kbits/s speed=0.0121x elapsed=0:03:01.51    \nframe=   68 fps=0.4 q=29.7 size=    1024KiB time=00:00:02.20 bitrate=3813.2kbits/s speed=0.0121x elapsed=0:03:02.14    \nframe=   68 fps=0.4 q=29.7 size=    1024KiB time=00:00:02.20 bitrate=3813.2kbits/s speed=0.012x elapsed=0:03:02.73    \nframe=   68 fps=0.4 q=29.7 size=    1024KiB time=00:00:02.20 bitrate=3813.2kbits/s speed=0.012x elapsed=0:03:03.43    \nframe=   68 fps=0.4 q=29.7 size=    1024KiB time=00:00:02.20 bitrate=3813.2kbits/s speed=0.012x elapsed=0:03:04.06    \nframe=   68 fps=0.4 q=29.7 size=    1024KiB time=00:00:02.20 bitrate=3813.2kbits/s speed=0.0119x elapsed=0:03:04.68    \nframe=   68 fps=0.4 q=29.7 size=    1024KiB time=00:00:02.20 bitrate=3813.2kbits/s speed=0.0119x elapsed=0:03:05.26    \nframe=   68 fps=0.4 q=29.7 size=    1024KiB time=00:00:02.20 bitrate=3813.2kbits/s speed=0.0118x elapsed=0:03:05.88    \nframe=   68 fps=0.4 q=29.7 size=    1024KiB time=00:00:02.20 bitrate=3813.2kbits/s speed=0.0118x elapsed=0:03:06.47    \nframe=   69 fps=0.4 q=32.4 size=    1024KiB time=00:00:02.23 bitrate=3756.3kbits/s speed=0.0119x elapsed=0:03:07.05    \nframe=   69 fps=0.4 q=32.4 size=    1024KiB time=00:00:02.23 bitrate=3756.3kbits/s speed=0.0119x elapsed=0:03:07.60    \nframe=   69 fps=0.4 q=32.4 size=    1024KiB time=00:00:02.23 bitrate=3756.3kbits/s speed=0.0119x elapsed=0:03:08.16    \nframe=   69 fps=0.4 q=32.4 size=    1024KiB time=00:00:02.23 bitrate=3756.3kbits/s speed=0.0118x elapsed=0:03:08.74    \nframe=   69 fps=0.4 q=32.4 size=    1024KiB time=00:00:02.23 bitrate=3756.3kbits/s speed=0.0118x elapsed=0:03:09.31    \nframe=   69 fps=0.4 q=32.4 size=    1024KiB time=00:00:02.23 bitrate=3756.3kbits/s speed=0.0118x elapsed=0:03:09.88    \nframe=   70 fps=0.4 q=31.8 size=    1024KiB time=00:00:02.26 bitrate=3701.0kbits/s speed=0.0119x elapsed=0:03:10.44    \nframe=   70 fps=0.4 q=31.8 size=    1024KiB time=00:00:02.26 bitrate=3701.0kbits/s speed=0.0119x elapsed=0:03:10.95    \nframe=   71 fps=0.4 q=25.4 size=    1024KiB time=00:00:02.26 bitrate=3701.0kbits/s speed=0.0118x elapsed=0:03:11.48    \nframe=   71 fps=0.4 q=25.4 size=    1024KiB time=00:00:02.30 bitrate=3647.4kbits/s speed=0.012x elapsed=0:03:12.02    \nframe=   71 fps=0.4 q=25.4 size=    1024KiB time=00:00:02.30 bitrate=3647.4kbits/s speed=0.0119x elapsed=0:03:12.57    \nframe=   71 fps=0.4 q=25.4 size=    1024KiB time=00:00:02.30 bitrate=3647.4kbits/s speed=0.0119x elapsed=0:03:13.13    \nframe=   72 fps=0.4 q=28.9 size=    1024KiB time=00:00:02.33 bitrate=3595.3kbits/s speed=0.012x elapsed=0:03:13.66    \nframe=   72 fps=0.4 q=28.9 size=    1024KiB time=00:00:02.33 bitrate=3595.3kbits/s speed=0.012x elapsed=0:03:14.22    \nframe=   73 fps=0.4 q=31.9 size=    1024KiB time=00:00:02.36 bitrate=3544.6kbits/s speed=0.0122x elapsed=0:03:14.77    \nframe=   73 fps=0.4 q=31.9 size=    1024KiB time=00:00:02.36 bitrate=3544.6kbits/s speed=0.0121x elapsed=0:03:15.31    \nframe=   73 fps=0.4 q=31.9 size=    1024KiB time=00:00:02.36 bitrate=3544.6kbits/s speed=0.0121x elapsed=0:03:15.83    \nframe=   74 fps=0.4 q=30.8 size=    1024KiB time=00:00:02.40 bitrate=3495.4kbits/s speed=0.0122x elapsed=0:03:16.36    \nframe=   74 fps=0.4 q=30.8 size=    1024KiB time=00:00:02.40 bitrate=3495.4kbits/s speed=0.0122x elapsed=0:03:16.89    \nframe=   74 fps=0.4 q=30.8 size=    1024KiB time=00:00:02.40 bitrate=3495.4kbits/s speed=0.0122x elapsed=0:03:17.42    \nframe=   74 fps=0.4 q=30.8 size=    1024KiB time=00:00:02.40 bitrate=3495.4kbits/s speed=0.0121x elapsed=0:03:17.97    \nframe=   74 fps=0.4 q=30.8 size=    1024KiB time=00:00:02.40 bitrate=3495.4kbits/s speed=0.0121x elapsed=0:03:18.49    \nframe=   74 fps=0.4 q=30.8 size=    1024KiB time=00:00:02.40 bitrate=3495.4kbits/s speed=0.0121x elapsed=0:03:19.02    \nframe=   74 fps=0.4 q=30.8 size=    1024KiB time=00:00:02.40 bitrate=3495.4kbits/s speed=0.012x elapsed=0:03:19.55    \nframe=   75 fps=0.4 q=25.1 size=    1024KiB time=00:00:02.43 bitrate=3447.5kbits/s speed=0.0122x elapsed=0:03:20.06    \nframe=   75 fps=0.4 q=25.1 size=    1024KiB time=00:00:02.43 bitrate=3447.5kbits/s speed=0.0121x elapsed=0:03:20.59    \nframe=   75 fps=0.4 q=25.1 size=    1024KiB time=00:00:02.43 bitrate=3447.5kbits/s speed=0.0121x elapsed=0:03:21.12    \nframe=   76 fps=0.4 q=28.8 size=    1024KiB time=00:00:02.46 bitrate=3400.9kbits/s speed=0.0122x elapsed=0:03:21.63    \nframe=   77 fps=0.4 q=32.1 size=    1024KiB time=00:00:02.50 bitrate=3355.6kbits/s speed=0.0124x elapsed=0:03:22.15    \nframe=   77 fps=0.4 q=32.1 size=    1024KiB time=00:00:02.50 bitrate=3355.6kbits/s speed=0.0123x elapsed=0:03:22.68    \nframe=   78 fps=0.4 q=32.1 size=    1024KiB time=00:00:02.53 bitrate=3311.4kbits/s speed=0.0125x elapsed=0:03:23.23    \nframe=   78 fps=0.4 q=32.1 size=    1024KiB time=00:00:02.53 bitrate=3311.4kbits/s speed=0.0124x elapsed=0:03:23.80    \nframe=   78 fps=0.4 q=32.1 size=    1024KiB time=00:00:02.53 bitrate=3311.4kbits/s speed=0.0124x elapsed=0:03:24.32    \nframe=   78 fps=0.4 q=32.1 size=    1024KiB time=00:00:02.53 bitrate=3311.4kbits/s speed=0.0124x elapsed=0:03:24.84    \nframe=   78 fps=0.4 q=32.1 size=    1024KiB time=00:00:02.53 bitrate=3311.4kbits/s speed=0.0123x elapsed=0:03:25.36    \nframe=   78 fps=0.4 q=32.1 size=    1024KiB time=00:00:02.53 bitrate=3311.4kbits/s speed=0.0123x elapsed=0:03:25.86    \nframe=   78 fps=0.4 q=32.1 size=    1024KiB time=00:00:02.53 bitrate=3311.4kbits/s speed=0.0123x elapsed=0:03:26.39    \nframe=   79 fps=0.4 q=25.4 size=    1024KiB time=00:00:02.56 bitrate=3268.4kbits/s speed=0.0124x elapsed=0:03:26.90    \nframe=   79 fps=0.4 q=25.4 size=    1024KiB time=00:00:02.56 bitrate=3268.4kbits/s speed=0.0124x elapsed=0:03:27.43    \nframe=   79 fps=0.4 q=25.4 size=    1024KiB time=00:00:02.56 bitrate=3268.4kbits/s speed=0.0123x elapsed=0:03:27.98    \nframe=   80 fps=0.4 q=29.1 size=    1024KiB time=00:00:02.60 bitrate=3226.5kbits/s speed=0.0125x elapsed=0:03:28.50    \nframe=   80 fps=0.4 q=29.1 size=    1024KiB time=00:00:02.60 bitrate=3226.5kbits/s speed=0.0124x elapsed=0:03:29.01    \nframe=   80 fps=0.4 q=29.1 size=    1024KiB time=00:00:02.60 bitrate=3226.5kbits/s speed=0.0124x elapsed=0:03:29.52    \nframe=   80 fps=0.4 q=29.1 size=    1024KiB time=00:00:02.60 bitrate=3226.5kbits/s speed=0.0124x elapsed=0:03:30.08    \nframe=   81 fps=0.4 q=32.3 size=    1024KiB time=00:00:02.63 bitrate=3185.7kbits/s speed=0.0125x elapsed=0:03:30.60    \nframe=   81 fps=0.4 q=32.3 size=    1024KiB time=00:00:02.63 bitrate=3185.7kbits/s speed=0.0125x elapsed=0:03:31.11    \nframe=   82 fps=0.4 q=31.8 size=    1024KiB time=00:00:02.66 bitrate=3145.9kbits/s speed=0.0126x elapsed=0:03:31.65    \nframe=   82 fps=0.4 q=31.8 size=    1024KiB time=00:00:02.66 bitrate=3145.9kbits/s speed=0.0126x elapsed=0:03:32.20    \nframe=   82 fps=0.4 q=31.8 size=    1024KiB time=00:00:02.66 bitrate=3145.9kbits/s speed=0.0125x elapsed=0:03:32.72    \nframe=   82 fps=0.4 q=31.8 size=    1024KiB time=00:00:02.66 bitrate=3145.9kbits/s speed=0.0125x elapsed=0:03:33.25    \nframe=   83 fps=0.4 q=25.7 size=    1280KiB time=00:00:02.70 bitrate=3883.7kbits/s speed=0.0126x elapsed=0:03:33.77    \nframe=   83 fps=0.4 q=25.7 size=    1280KiB time=00:00:02.70 bitrate=3883.7kbits/s speed=0.0126x elapsed=0:03:34.31    \nframe=   84 fps=0.4 q=28.7 size=    1280KiB time=00:00:02.73 bitrate=3836.4kbits/s speed=0.0127x elapsed=0:03:34.82    \nframe=   84 fps=0.4 q=28.7 size=    1280KiB time=00:00:02.73 bitrate=3836.4kbits/s speed=0.0127x elapsed=0:03:35.34    \nframe=   85 fps=0.4 q=32.4 size=    1280KiB time=00:00:02.76 bitrate=3790.2kbits/s speed=0.0128x elapsed=0:03:35.86    \nframe=   85 fps=0.4 q=32.4 size=    1280KiB time=00:00:02.76 bitrate=3790.2kbits/s speed=0.0128x elapsed=0:03:36.38    \nframe=   86 fps=0.4 q=32.1 size=    1280KiB time=00:00:02.80 bitrate=3745.0kbits/s speed=0.0129x elapsed=0:03:36.92    \nframe=   86 fps=0.4 q=32.1 size=    1280KiB time=00:00:02.80 bitrate=3745.0kbits/s speed=0.0129x elapsed=0:03:37.43    \nframe=   87 fps=0.4 q=25.0 size=    1280KiB time=00:00:02.83 bitrate=3701.0kbits/s speed=0.013x elapsed=0:03:37.95    \nframe=   87 fps=0.4 q=25.0 size=    1280KiB time=00:00:02.83 bitrate=3701.0kbits/s speed=0.013x elapsed=0:03:38.51    \nframe=   87 fps=0.4 q=25.0 size=    1280KiB time=00:00:02.83 bitrate=3701.0kbits/s speed=0.0129x elapsed=0:03:39.08    \nframe=   87 fps=0.4 q=25.0 size=    1280KiB time=00:00:02.83 bitrate=3701.0kbits/s speed=0.0129x elapsed=0:03:39.61    \nframe=   87 fps=0.4 q=25.0 size=    1280KiB time=00:00:02.83 bitrate=3701.0kbits/s speed=0.0129x elapsed=0:03:40.14    \nframe=   88 fps=0.4 q=32.2 size=    1280KiB time=00:00:02.86 bitrate=3657.9kbits/s speed=0.013x elapsed=0:03:40.66    \nframe=   88 fps=0.4 q=32.2 size=    1280KiB time=00:00:02.86 bitrate=3657.9kbits/s speed=0.013x elapsed=0:03:41.18    \nframe=   88 fps=0.4 q=32.2 size=    1280KiB time=00:00:02.86 bitrate=3657.9kbits/s speed=0.0129x elapsed=0:03:41.71    \nframe=   88 fps=0.4 q=32.2 size=    1280KiB time=00:00:02.86 bitrate=3657.9kbits/s speed=0.0129x elapsed=0:03:42.26    \nframe=   89 fps=0.4 q=25.2 size=    1280KiB time=00:00:02.90 bitrate=3615.9kbits/s speed=0.013x elapsed=0:03:42.80    \nframe=   89 fps=0.4 q=25.2 size=    1280KiB time=00:00:02.90 bitrate=3615.9kbits/s speed=0.013x elapsed=0:03:43.33    \nframe=   89 fps=0.4 q=25.2 size=    1280KiB time=00:00:02.90 bitrate=3615.9kbits/s speed=0.013x elapsed=0:03:43.85    \nframe=   89 fps=0.4 q=25.2 size=    1280KiB time=00:00:02.90 bitrate=3615.9kbits/s speed=0.0129x elapsed=0:03:44.37    \nframe=   89 fps=0.4 q=25.2 size=    1280KiB time=00:00:02.90 bitrate=3615.9kbits/s speed=0.0129x elapsed=0:03:44.91    \nframe=   90 fps=0.4 q=27.3 size=    1280KiB time=00:00:02.93 bitrate=3574.8kbits/s speed=0.013x elapsed=0:03:45.44    \nframe=   90 fps=0.4 q=27.3 size=    1280KiB time=00:00:02.93 bitrate=3574.8kbits/s speed=0.013x elapsed=0:03:45.97    \nframe=   90 fps=0.4 q=27.3 size=    1280KiB time=00:00:02.93 bitrate=3574.8kbits/s speed=0.0129x elapsed=0:03:46.52    \nframe=   91 fps=0.4 q=32.9 size=    1280KiB time=00:00:02.96 bitrate=3534.6kbits/s speed=0.0131x elapsed=0:03:47.05    \nframe=   91 fps=0.4 q=32.9 size=    1280KiB time=00:00:02.96 bitrate=3534.6kbits/s speed=0.013x elapsed=0:03:47.58    \nframe=   91 fps=0.4 q=32.9 size=    1280KiB time=00:00:02.96 bitrate=3534.6kbits/s speed=0.013x elapsed=0:03:48.10    \nframe=   92 fps=0.4 q=32.7 size=    1280KiB time=00:00:03.00 bitrate=3495.4kbits/s speed=0.0131x elapsed=0:03:48.62    \nframe=   92 fps=0.4 q=32.7 size=    1280KiB time=00:00:03.00 bitrate=3495.4kbits/s speed=0.0131x elapsed=0:03:49.13    \nframe=   92 fps=0.4 q=32.7 size=    1280KiB time=00:00:03.00 bitrate=3495.4kbits/s speed=0.0131x elapsed=0:03:49.67    \nframe=   92 fps=0.4 q=32.7 size=    1280KiB time=00:00:03.00 bitrate=3495.4kbits/s speed=0.013x elapsed=0:03:50.21    \nframe=   92 fps=0.4 q=32.7 size=    1280KiB time=00:00:03.00 bitrate=3495.4kbits/s speed=0.013x elapsed=0:03:50.73    \nframe=   92 fps=0.4 q=32.7 size=    1280KiB time=00:00:03.00 bitrate=3495.4kbits/s speed=0.013x elapsed=0:03:51.25    \nframe=   93 fps=0.4 q=33.0 size=    1280KiB time=00:00:03.03 bitrate=3457.0kbits/s speed=0.0131x elapsed=0:03:51.77    \nframe=   93 fps=0.4 q=33.0 size=    1280KiB time=00:00:03.03 bitrate=3457.0kbits/s speed=0.0131x elapsed=0:03:52.31    \nframe=   94 fps=0.4 q=25.6 size=    1280KiB time=00:00:03.06 bitrate=3419.4kbits/s speed=0.0132x elapsed=0:03:52.82    \nframe=   94 fps=0.4 q=25.6 size=    1280KiB time=00:00:03.06 bitrate=3419.4kbits/s speed=0.0131x elapsed=0:03:53.36    \nframe=   94 fps=0.4 q=25.6 size=    1280KiB time=00:00:03.06 bitrate=3419.4kbits/s speed=0.0131x elapsed=0:03:53.89    \nframe=   95 fps=0.4 q=27.2 size=    1536KiB time=00:00:03.10 bitrate=4059.1kbits/s speed=0.0132x elapsed=0:03:54.41    \nframe=   95 fps=0.4 q=27.2 size=    1536KiB time=00:00:03.10 bitrate=4059.1kbits/s speed=0.0132x elapsed=0:03:54.94    \nframe=   95 fps=0.4 q=27.2 size=    1536KiB time=00:00:03.10 bitrate=4059.1kbits/s speed=0.0132x elapsed=0:03:55.47    \nframe=   96 fps=0.4 q=33.0 size=    1536KiB time=00:00:03.13 bitrate=4015.9kbits/s speed=0.0133x elapsed=0:03:55.99    \nframe=   96 fps=0.4 q=33.0 size=    1536KiB time=00:00:03.13 bitrate=4015.9kbits/s speed=0.0132x elapsed=0:03:56.52    \nframe=   97 fps=0.4 q=32.8 size=    1536KiB time=00:00:03.16 bitrate=3973.7kbits/s speed=0.0134x elapsed=0:03:57.05    \nframe=   97 fps=0.4 q=32.8 size=    1536KiB time=00:00:03.16 bitrate=3973.7kbits/s speed=0.0133x elapsed=0:03:57.56    \nframe=   97 fps=0.4 q=32.8 size=    1536KiB time=00:00:03.16 bitrate=3973.7kbits/s speed=0.0133x elapsed=0:03:58.10    \nframe=   97 fps=0.4 q=32.8 size=    1536KiB time=00:00:03.16 bitrate=3973.7kbits/s speed=0.0133x elapsed=0:03:58.63    \nframe=   97 fps=0.4 q=32.8 size=    1536KiB time=00:00:03.16 bitrate=3973.7kbits/s speed=0.0132x elapsed=0:03:59.16    \nframe=   98 fps=0.4 q=33.6 size=    1536KiB time=00:00:03.20 bitrate=3932.3kbits/s speed=0.0134x elapsed=0:03:59.68    \nframe=   98 fps=0.4 q=33.6 size=    1536KiB time=00:00:03.20 bitrate=3932.3kbits/s speed=0.0133x elapsed=0:04:00.23    \nframe=   98 fps=0.4 q=33.6 size=    1536KiB time=00:00:03.20 bitrate=3932.3kbits/s speed=0.0133x elapsed=0:04:00.78    \nframe=   98 fps=0.4 q=33.6 size=    1536KiB time=00:00:03.20 bitrate=3932.3kbits/s speed=0.0133x elapsed=0:04:01.32    \nframe=   98 fps=0.4 q=33.6 size=    1536KiB time=00:00:03.20 bitrate=3932.3kbits/s speed=0.0132x elapsed=0:04:01.84    \nframe=   99 fps=0.4 q=25.7 size=    1536KiB time=00:00:03.23 bitrate=3891.7kbits/s speed=0.0133x elapsed=0:04:02.38    \nframe=   99 fps=0.4 q=25.7 size=    1536KiB time=00:00:03.23 bitrate=3891.7kbits/s speed=0.0133x elapsed=0:04:02.89    \nframe=   99 fps=0.4 q=25.7 size=    1536KiB time=00:00:03.23 bitrate=3891.7kbits/s speed=0.0133x elapsed=0:04:03.43    \nframe=   99 fps=0.4 q=25.7 size=    1536KiB time=00:00:03.23 bitrate=3891.7kbits/s speed=0.0133x elapsed=0:04:03.96    \nframe=   99 fps=0.4 q=25.7 size=    1536KiB time=00:00:03.23 bitrate=3891.7kbits/s speed=0.0132x elapsed=0:04:04.49    \nframe=  100 fps=0.4 q=30.3 size=    1536KiB time=00:00:03.26 bitrate=3852.0kbits/s speed=0.0133x elapsed=0:04:05.01    \nframe=  100 fps=0.4 q=30.3 size=    1536KiB time=00:00:03.26 bitrate=3852.0kbits/s speed=0.0133x elapsed=0:04:05.53    \nframe=  100 fps=0.4 q=30.3 size=    1536KiB time=00:00:03.26 bitrate=3852.0kbits/s speed=0.0133x elapsed=0:04:06.05    \nframe=  100 fps=0.4 q=30.3 size=    1536KiB time=00:00:03.26 bitrate=3852.0kbits/s speed=0.0132x elapsed=0:04:06.58    \nframe=  101 fps=0.4 q=33.5 size=    1536KiB time=00:00:03.30 bitrate=3813.1kbits/s speed=0.0134x elapsed=0:04:07.11    \nframe=  102 fps=0.4 q=33.5 size=    1536KiB time=00:00:03.33 bitrate=3775.0kbits/s speed=0.0135x elapsed=0:04:07.64    \nframe=  102 fps=0.4 q=33.5 size=    1536KiB time=00:00:03.33 bitrate=3775.0kbits/s speed=0.0134x elapsed=0:04:08.18    \nframe=  103 fps=0.4 q=25.9 size=    1536KiB time=00:00:03.36 bitrate=3737.6kbits/s speed=0.0135x elapsed=0:04:08.71    \nframe=  103 fps=0.4 q=25.9 size=    1536KiB time=00:00:03.36 bitrate=3737.6kbits/s speed=0.0135x elapsed=0:04:09.24    \nframe=  103 fps=0.4 q=25.9 size=    1536KiB time=00:00:03.36 bitrate=3737.6kbits/s speed=0.0135x elapsed=0:04:09.75    \nframe=  103 fps=0.4 q=25.9 size=    1536KiB time=00:00:03.36 bitrate=3737.6kbits/s speed=0.0135x elapsed=0:04:10.28    \nframe=  104 fps=0.4 q=30.3 size=    1536KiB time=00:00:03.40 bitrate=3701.0kbits/s speed=0.0136x elapsed=0:04:10.81    \nframe=  104 fps=0.4 q=30.3 size=    1536KiB time=00:00:03.40 bitrate=3701.0kbits/s speed=0.0135x elapsed=0:04:11.32    \nframe=  105 fps=0.4 q=33.3 size=    1536KiB time=00:00:03.43 bitrate=3665.0kbits/s speed=0.0136x elapsed=0:04:11.84    \nframe=  105 fps=0.4 q=33.3 size=    1536KiB time=00:00:03.43 bitrate=3665.0kbits/s speed=0.0136x elapsed=0:04:12.36    \nframe=  105 fps=0.4 q=33.3 size=    1536KiB time=00:00:03.43 bitrate=3665.0kbits/s speed=0.0136x elapsed=0:04:12.90    \nframe=  106 fps=0.4 q=33.8 size=    1536KiB time=00:00:03.46 bitrate=3629.8kbits/s speed=0.0137x elapsed=0:04:13.45    \nframe=  106 fps=0.4 q=33.8 size=    1536KiB time=00:00:03.46 bitrate=3629.8kbits/s speed=0.0136x elapsed=0:04:13.99    \nframe=  106 fps=0.4 q=33.8 size=    1536KiB time=00:00:03.46 bitrate=3629.8kbits/s speed=0.0136x elapsed=0:04:14.53    \nframe=  107 fps=0.4 q=26.0 size=    1536KiB time=00:00:03.50 bitrate=3595.2kbits/s speed=0.0137x elapsed=0:04:15.07    \nframe=  107 fps=0.4 q=26.0 size=    1536KiB time=00:00:03.50 bitrate=3595.2kbits/s speed=0.0137x elapsed=0:04:15.58    \nframe=  107 fps=0.4 q=26.0 size=    1536KiB time=00:00:03.50 bitrate=3595.2kbits/s speed=0.0137x elapsed=0:04:16.14    \nframe=  108 fps=0.4 q=30.4 size=    1536KiB time=00:00:03.53 bitrate=3561.3kbits/s speed=0.0138x elapsed=0:04:16.66    \nframe=  108 fps=0.4 q=30.4 size=    1536KiB time=00:00:03.53 bitrate=3561.3kbits/s speed=0.0137x elapsed=0:04:17.18    \nframe=  108 fps=0.4 q=30.4 size=    1536KiB time=00:00:03.53 bitrate=3561.3kbits/s speed=0.0137x elapsed=0:04:17.76    \nframe=  108 fps=0.4 q=30.4 size=    1536KiB time=00:00:03.53 bitrate=3561.3kbits/s speed=0.0137x elapsed=0:04:18.34    \nframe=  109 fps=0.4 q=33.5 size=    1536KiB time=00:00:03.56 bitrate=3528.0kbits/s speed=0.0138x elapsed=0:04:18.92    \nframe=  109 fps=0.4 q=33.5 size=    1536KiB time=00:00:03.56 bitrate=3528.0kbits/s speed=0.0137x elapsed=0:04:19.46    \nframe=  109 fps=0.4 q=33.5 size=    1536KiB time=00:00:03.56 bitrate=3528.0kbits/s speed=0.0137x elapsed=0:04:19.98    \nframe=  109 fps=0.4 q=33.5 size=    1536KiB time=00:00:03.56 bitrate=3528.0kbits/s speed=0.0137x elapsed=0:04:20.52    \nframe=  109 fps=0.4 q=33.5 size=    1536KiB time=00:00:03.56 bitrate=3528.0kbits/s speed=0.0137x elapsed=0:04:21.11    \nframe=  109 fps=0.4 q=33.5 size=    1536KiB time=00:00:03.56 bitrate=3528.0kbits/s speed=0.0136x elapsed=0:04:21.71    \nframe=  109 fps=0.4 q=33.5 size=    1536KiB time=00:00:03.56 bitrate=3528.0kbits/s speed=0.0136x elapsed=0:04:22.39    \nframe=  109 fps=0.4 q=33.5 size=    1536KiB time=00:00:03.56 bitrate=3528.0kbits/s speed=0.0136x elapsed=0:04:23.05    \nframe=  109 fps=0.4 q=33.5 size=    1536KiB time=00:00:03.56 bitrate=3528.0kbits/s speed=0.0135x elapsed=0:04:23.70    \nframe=  109 fps=0.4 q=33.5 size=    1536KiB time=00:00:03.56 bitrate=3528.0kbits/s speed=0.0135x elapsed=0:04:24.39    \nframe=  109 fps=0.4 q=33.5 size=    1536KiB time=00:00:03.56 bitrate=3528.0kbits/s speed=0.0135x elapsed=0:04:24.95    \nframe=  109 fps=0.4 q=33.5 size=    1536KiB time=00:00:03.56 bitrate=3528.0kbits/s speed=0.0134x elapsed=0:04:25.52    \nframe=  110 fps=0.4 q=26.1 size=    1536KiB time=00:00:03.60 bitrate=3495.4kbits/s speed=0.0135x elapsed=0:04:26.14    \nframe=  111 fps=0.4 q=30.7 size=    1792KiB time=00:00:03.63 bitrate=4040.5kbits/s speed=0.0136x elapsed=0:04:26.72    \nframe=  111 fps=0.4 q=30.7 size=    1792KiB time=00:00:03.63 bitrate=4040.5kbits/s speed=0.0136x elapsed=0:04:27.29    \nframe=  111 fps=0.4 q=30.7 size=    1792KiB time=00:00:03.63 bitrate=4040.5kbits/s speed=0.0136x elapsed=0:04:27.82    \nframe=  111 fps=0.4 q=30.7 size=    1792KiB time=00:00:03.63 bitrate=4040.5kbits/s speed=0.0135x elapsed=0:04:28.39    \nframe=  111 fps=0.4 q=30.7 size=    1792KiB time=00:00:03.63 bitrate=4040.5kbits/s speed=0.0135x elapsed=0:04:28.92    \nframe=  111 fps=0.4 q=30.7 size=    1792KiB time=00:00:03.63 bitrate=4040.5kbits/s speed=0.0135x elapsed=0:04:29.53    \nframe=  112 fps=0.4 q=34.0 size=    1792KiB time=00:00:03.66 bitrate=4003.7kbits/s speed=0.0136x elapsed=0:04:30.10    \nframe=  112 fps=0.4 q=34.0 size=    1792KiB time=00:00:03.66 bitrate=4003.7kbits/s speed=0.0135x elapsed=0:04:30.62    \nframe=  113 fps=0.4 q=34.2 size=    1792KiB time=00:00:03.70 bitrate=3967.7kbits/s speed=0.0136x elapsed=0:04:31.15    \nframe=  113 fps=0.4 q=34.2 size=    1792KiB time=00:00:03.70 bitrate=3967.7kbits/s speed=0.0136x elapsed=0:04:31.66    \nframe=  113 fps=0.4 q=34.2 size=    1792KiB time=00:00:03.70 bitrate=3967.7kbits/s speed=0.0136x elapsed=0:04:32.19    \nframe=  114 fps=0.4 q=25.9 size=    1792KiB time=00:00:03.73 bitrate=3932.3kbits/s speed=0.0137x elapsed=0:04:32.71    \nframe=  114 fps=0.4 q=25.9 size=    1792KiB time=00:00:03.73 bitrate=3932.3kbits/s speed=0.0137x elapsed=0:04:33.23    \nframe=  115 fps=0.4 q=30.8 size=    1792KiB time=00:00:03.76 bitrate=3897.5kbits/s speed=0.0138x elapsed=0:04:33.76    \nframe=  115 fps=0.4 q=30.8 size=    1792KiB time=00:00:03.76 bitrate=3897.5kbits/s speed=0.0137x elapsed=0:04:34.30    \nframe=  115 fps=0.4 q=30.8 size=    1792KiB time=00:00:03.76 bitrate=3897.5kbits/s speed=0.0137x elapsed=0:04:34.82    \nframe=  115 fps=0.4 q=30.8 size=    1792KiB time=00:00:03.76 bitrate=3897.5kbits/s speed=0.0137x elapsed=0:04:35.36    \nframe=  116 fps=0.4 q=34.1 size=    1792KiB time=00:00:03.80 bitrate=3863.3kbits/s speed=0.0138x elapsed=0:04:35.90    \nframe=  116 fps=0.4 q=34.1 size=    1792KiB time=00:00:03.80 bitrate=3863.3kbits/s speed=0.0137x elapsed=0:04:36.50    \nframe=  116 fps=0.4 q=34.1 size=    1792KiB time=00:00:03.80 bitrate=3863.3kbits/s speed=0.0137x elapsed=0:04:37.03    \nframe=  117 fps=0.4 q=34.4 size=    1792KiB time=00:00:03.83 bitrate=3829.7kbits/s speed=0.0138x elapsed=0:04:37.56    \nframe=  117 fps=0.4 q=34.4 size=    1792KiB time=00:00:03.83 bitrate=3829.7kbits/s speed=0.0138x elapsed=0:04:38.08    \nframe=  118 fps=0.4 q=26.2 size=    1792KiB time=00:00:03.86 bitrate=3796.7kbits/s speed=0.0139x elapsed=0:04:38.59    \nframe=  118 fps=0.4 q=26.2 size=    1792KiB time=00:00:03.86 bitrate=3796.7kbits/s speed=0.0139x elapsed=0:04:39.10    \nframe=  118 fps=0.4 q=26.2 size=    1792KiB time=00:00:03.86 bitrate=3796.7kbits/s speed=0.0138x elapsed=0:04:39.61    \nframe=  118 fps=0.4 q=26.2 size=    1792KiB time=00:00:03.86 bitrate=3796.7kbits/s speed=0.0138x elapsed=0:04:40.14    \nframe=  119 fps=0.4 q=30.7 size=    1792KiB time=00:00:03.90 bitrate=3764.2kbits/s speed=0.0139x elapsed=0:04:40.67    \nframe=  119 fps=0.4 q=30.7 size=    1792KiB time=00:00:03.90 bitrate=3764.2kbits/s speed=0.0139x elapsed=0:04:41.21    \nframe=  119 fps=0.4 q=30.7 size=    1792KiB time=00:00:03.90 bitrate=3764.2kbits/s speed=0.0138x elapsed=0:04:41.75    \nframe=  119 fps=0.4 q=30.7 size=    1792KiB time=00:00:03.90 bitrate=3764.2kbits/s speed=0.0138x elapsed=0:04:42.26    \nframe=  120 fps=0.4 q=33.6 size=    1792KiB time=00:00:03.93 bitrate=3732.3kbits/s speed=0.0139x elapsed=0:04:42.79    \nframe=  120 fps=0.4 q=33.6 size=    1792KiB time=00:00:03.93 bitrate=3732.3kbits/s speed=0.0139x elapsed=0:04:43.31    \nframe=  121 fps=0.4 q=34.3 size=    1792KiB time=00:00:03.96 bitrate=3700.9kbits/s speed=0.014x elapsed=0:04:43.84    \nframe=  121 fps=0.4 q=34.3 size=    1792KiB time=00:00:03.96 bitrate=3700.9kbits/s speed=0.0139x elapsed=0:04:44.36    \nframe=  121 fps=0.4 q=34.3 size=    1792KiB time=00:00:03.96 bitrate=3700.9kbits/s speed=0.0139x elapsed=0:04:44.87    \nframe=  121 fps=0.4 q=34.3 size=    1792KiB time=00:00:03.96 bitrate=3700.9kbits/s speed=0.0139x elapsed=0:04:45.42    \nframe=  121 fps=0.4 q=34.3 size=    1792KiB time=00:00:03.96 bitrate=3700.9kbits/s speed=0.0139x elapsed=0:04:45.93    \nframe=  122 fps=0.4 q=26.4 size=    1792KiB time=00:00:04.00 bitrate=3670.1kbits/s speed=0.014x elapsed=0:04:46.45    \nframe=  122 fps=0.4 q=26.4 size=    1792KiB time=00:00:04.00 bitrate=3670.1kbits/s speed=0.0139x elapsed=0:04:47.00    \nframe=  123 fps=0.4 q=32.4 size=    1792KiB time=00:00:04.03 bitrate=3639.8kbits/s speed=0.014x elapsed=0:04:47.51    \nframe=  123 fps=0.4 q=32.4 size=    1792KiB time=00:00:04.03 bitrate=3639.8kbits/s speed=0.014x elapsed=0:04:48.04    \nframe=  123 fps=0.4 q=32.4 size=    1792KiB time=00:00:04.03 bitrate=3639.8kbits/s speed=0.014x elapsed=0:04:48.56    \nframe=  124 fps=0.4 q=33.5 size=    1792KiB time=00:00:04.06 bitrate=3609.9kbits/s speed=0.0141x elapsed=0:04:49.10    \nframe=  124 fps=0.4 q=33.5 size=    1792KiB time=00:00:04.06 bitrate=3609.9kbits/s speed=0.014x elapsed=0:04:49.61    \nframe=  124 fps=0.4 q=33.5 size=    1792KiB time=00:00:04.06 bitrate=3609.9kbits/s speed=0.014x elapsed=0:04:50.13    \nframe=  125 fps=0.4 q=34.0 size=    1792KiB time=00:00:04.10 bitrate=3580.6kbits/s speed=0.0141x elapsed=0:04:50.64    \nframe=  125 fps=0.4 q=34.0 size=    1792KiB time=00:00:04.10 bitrate=3580.6kbits/s speed=0.0141x elapsed=0:04:51.18    \nframe=  125 fps=0.4 q=34.0 size=    1792KiB time=00:00:04.10 bitrate=3580.6kbits/s speed=0.0141x elapsed=0:04:51.71    \nframe=  125 fps=0.4 q=34.0 size=    1792KiB time=00:00:04.10 bitrate=3580.6kbits/s speed=0.014x elapsed=0:04:52.23    \nframe=  126 fps=0.4 q=34.4 size=    1792KiB time=00:00:04.13 bitrate=3551.7kbits/s speed=0.0141x elapsed=0:04:52.74    \nframe=  126 fps=0.4 q=34.4 size=    1792KiB time=00:00:04.13 bitrate=3551.7kbits/s speed=0.0141x elapsed=0:04:53.26    \nframe=  126 fps=0.4 q=34.4 size=    1792KiB time=00:00:04.13 bitrate=3551.7kbits/s speed=0.0141x elapsed=0:04:53.77    \nframe=  127 fps=0.4 q=26.6 size=    1792KiB time=00:00:04.16 bitrate=3523.3kbits/s speed=0.0142x elapsed=0:04:54.31    \nframe=  128 fps=0.4 q=30.8 size=    2048KiB time=00:00:04.20 bitrate=3994.7kbits/s speed=0.0142x elapsed=0:04:54.82    \nframe=  128 fps=0.4 q=30.8 size=    2048KiB time=00:00:04.20 bitrate=3994.7kbits/s speed=0.0142x elapsed=0:04:55.35    \nframe=  128 fps=0.4 q=30.8 size=    2048KiB time=00:00:04.20 bitrate=3994.7kbits/s speed=0.0142x elapsed=0:04:55.89    \nframe=  129 fps=0.4 q=34.3 size=    2048KiB time=00:00:04.23 bitrate=3963.2kbits/s speed=0.0143x elapsed=0:04:56.41    \nframe=  129 fps=0.4 q=34.3 size=    2048KiB time=00:00:04.23 bitrate=3963.2kbits/s speed=0.0143x elapsed=0:04:56.94    \nframe=  129 fps=0.4 q=34.3 size=    2048KiB time=00:00:04.23 bitrate=3963.2kbits/s speed=0.0142x elapsed=0:04:57.47    \nframe=  129 fps=0.4 q=34.3 size=    2048KiB time=00:00:04.23 bitrate=3963.2kbits/s speed=0.0142x elapsed=0:04:58.08    \nframe=  129 fps=0.4 q=34.3 size=    2048KiB time=00:00:04.23 bitrate=3963.2kbits/s speed=0.0142x elapsed=0:04:58.62    \nframe=  130 fps=0.4 q=34.3 size=    2048KiB time=00:00:04.26 bitrate=3932.2kbits/s speed=0.0143x elapsed=0:04:59.16    \nframe=  130 fps=0.4 q=34.3 size=    2048KiB time=00:00:04.26 bitrate=3932.2kbits/s speed=0.0142x elapsed=0:04:59.69    \nframe=  130 fps=0.4 q=34.3 size=    2048KiB time=00:00:04.26 bitrate=3932.2kbits/s speed=0.0142x elapsed=0:05:00.29    \nframe=  130 fps=0.4 q=34.3 size=    2048KiB time=00:00:04.26 bitrate=3932.2kbits/s speed=0.0142x elapsed=0:05:00.93    \nframe=  130 fps=0.4 q=34.3 size=    2048KiB time=00:00:04.26 bitrate=3932.2kbits/s speed=0.0141x elapsed=0:05:01.57    \nframe=  130 fps=0.4 q=34.3 size=    2048KiB time=00:00:04.26 bitrate=3932.2kbits/s speed=0.0141x elapsed=0:05:02.17    \nframe=  130 fps=0.4 q=34.3 size=    2048KiB time=00:00:04.26 bitrate=3932.2kbits/s speed=0.0141x elapsed=0:05:02.74    \nframe=  130 fps=0.4 q=34.3 size=    2048KiB time=00:00:04.26 bitrate=3932.2kbits/s speed=0.0141x elapsed=0:05:03.27    \nframe=  130 fps=0.4 q=34.3 size=    2048KiB time=00:00:04.26 bitrate=3932.2kbits/s speed=0.014x elapsed=0:05:03.82    \nframe=  130 fps=0.4 q=34.3 size=    2048KiB time=00:00:04.26 bitrate=3932.2kbits/s speed=0.014x elapsed=0:05:04.35    \nframe=  130 fps=0.4 q=34.3 size=    2048KiB time=00:00:04.26 bitrate=3932.2kbits/s speed=0.014x elapsed=0:05:04.92    \nframe=  131 fps=0.4 q=26.2 size=    2048KiB time=00:00:04.30 bitrate=3901.8kbits/s speed=0.0141x elapsed=0:05:05.50    \nframe=  131 fps=0.4 q=26.2 size=    2048KiB time=00:00:04.30 bitrate=3901.8kbits/s speed=0.014x elapsed=0:05:06.07    \nframe=  131 fps=0.4 q=26.2 size=    2048KiB time=00:00:04.30 bitrate=3901.8kbits/s speed=0.014x elapsed=0:05:06.62    \nframe=  131 fps=0.4 q=26.2 size=    2048KiB time=00:00:04.30 bitrate=3901.8kbits/s speed=0.014x elapsed=0:05:07.15    \nframe=  131 fps=0.4 q=26.2 size=    2048KiB time=00:00:04.30 bitrate=3901.8kbits/s speed=0.014x elapsed=0:05:07.70    \nframe=  131 fps=0.4 q=26.2 size=    2048KiB time=00:00:04.30 bitrate=3901.8kbits/s speed=0.0139x elapsed=0:05:08.26    \nframe=  131 fps=0.4 q=26.2 size=    2048KiB time=00:00:04.30 bitrate=3901.8kbits/s speed=0.0139x elapsed=0:05:08.84    \nframe=  131 fps=0.4 q=26.2 size=    2048KiB time=00:00:04.30 bitrate=3901.8kbits/s speed=0.0139x elapsed=0:05:09.41    \nframe=  131 fps=0.4 q=26.2 size=    2048KiB time=00:00:04.30 bitrate=3901.8kbits/s speed=0.0139x elapsed=0:05:09.94    \nframe=  131 fps=0.4 q=26.2 size=    2048KiB time=00:00:04.30 bitrate=3901.8kbits/s speed=0.0138x elapsed=0:05:10.50    \nframe=  131 fps=0.4 q=26.2 size=    2048KiB time=00:00:04.30 bitrate=3901.8kbits/s speed=0.0138x elapsed=0:05:11.09    \nframe=  131 fps=0.4 q=26.2 size=    2048KiB time=00:00:04.30 bitrate=3901.8kbits/s speed=0.0138x elapsed=0:05:11.66    \nframe=  131 fps=0.4 q=26.2 size=    2048KiB time=00:00:04.30 bitrate=3901.8kbits/s speed=0.0138x elapsed=0:05:12.18    \nframe=  131 fps=0.4 q=26.2 size=    2048KiB time=00:00:04.30 bitrate=3901.8kbits/s speed=0.0137x elapsed=0:05:12.75    \nframe=  131 fps=0.4 q=26.2 size=    2048KiB time=00:00:04.30 bitrate=3901.8kbits/s speed=0.0137x elapsed=0:05:13.37    \nframe=  131 fps=0.4 q=26.2 size=    2048KiB time=00:00:04.30 bitrate=3901.8kbits/s speed=0.0137x elapsed=0:05:13.93    \nframe=  131 fps=0.4 q=26.2 size=    2048KiB time=00:00:04.30 bitrate=3901.8kbits/s speed=0.0137x elapsed=0:05:14.47    \nframe=  132 fps=0.4 q=30.6 size=    2048KiB time=00:00:04.33 bitrate=3871.7kbits/s speed=0.0138x elapsed=0:05:15.02    \nframe=  132 fps=0.4 q=30.6 size=    2048KiB time=00:00:04.33 bitrate=3871.7kbits/s speed=0.0137x elapsed=0:05:15.56    \nframe=  132 fps=0.4 q=30.6 size=    2048KiB time=00:00:04.33 bitrate=3871.7kbits/s speed=0.0137x elapsed=0:05:16.14    \nframe=  132 fps=0.4 q=30.6 size=    2048KiB time=00:00:04.33 bitrate=3871.7kbits/s speed=0.0137x elapsed=0:05:16.74    \nframe=  132 fps=0.4 q=30.6 size=    2048KiB time=00:00:04.33 bitrate=3871.7kbits/s speed=0.0137x elapsed=0:05:17.34    \nframe=  132 fps=0.4 q=30.6 size=    2048KiB time=00:00:04.33 bitrate=3871.7kbits/s speed=0.0136x elapsed=0:05:17.90    \nframe=  132 fps=0.4 q=30.6 size=    2048KiB time=00:00:04.33 bitrate=3871.7kbits/s speed=0.0136x elapsed=0:05:18.45    \nframe=  132 fps=0.4 q=30.6 size=    2048KiB time=00:00:04.33 bitrate=3871.7kbits/s speed=0.0136x elapsed=0:05:18.98    \nframe=  132 fps=0.4 q=30.6 size=    2048KiB time=00:00:04.33 bitrate=3871.7kbits/s speed=0.0136x elapsed=0:05:19.52    \nframe=  132 fps=0.4 q=30.6 size=    2048KiB time=00:00:04.33 bitrate=3871.7kbits/s speed=0.0135x elapsed=0:05:20.14    \nframe=  132 fps=0.4 q=30.6 size=    2048KiB time=00:00:04.33 bitrate=3871.7kbits/s speed=0.0135x elapsed=0:05:20.70    \nframe=  132 fps=0.4 q=30.6 size=    2048KiB time=00:00:04.33 bitrate=3871.7kbits/s speed=0.0135x elapsed=0:05:21.30    \nframe=  133 fps=0.4 q=34.3 size=    2048KiB time=00:00:04.36 bitrate=3842.2kbits/s speed=0.0136x elapsed=0:05:21.85    \nframe=  133 fps=0.4 q=34.3 size=    2048KiB time=00:00:04.36 bitrate=3842.2kbits/s speed=0.0135x elapsed=0:05:22.42    \nframe=  133 fps=0.4 q=34.3 size=    2048KiB time=00:00:04.36 bitrate=3842.2kbits/s speed=0.0135x elapsed=0:05:22.97    \nframe=  133 fps=0.4 q=34.3 size=    2048KiB time=00:00:04.36 bitrate=3842.2kbits/s speed=0.0135x elapsed=0:05:23.53    \nframe=  133 fps=0.4 q=34.3 size=    2048KiB time=00:00:04.36 bitrate=3842.2kbits/s speed=0.0135x elapsed=0:05:24.11    \nframe=  133 fps=0.4 q=34.3 size=    2048KiB time=00:00:04.36 bitrate=3842.2kbits/s speed=0.0134x elapsed=0:05:24.72    \nframe=  133 fps=0.4 q=34.3 size=    2048KiB time=00:00:04.36 bitrate=3842.2kbits/s speed=0.0134x elapsed=0:05:25.28    \nframe=  133 fps=0.4 q=34.3 size=    2048KiB time=00:00:04.36 bitrate=3842.2kbits/s speed=0.0134x elapsed=0:05:25.82    \nframe=  133 fps=0.4 q=34.3 size=    2048KiB time=00:00:04.36 bitrate=3842.2kbits/s speed=0.0134x elapsed=0:05:26.43    \nframe=  134 fps=0.4 q=34.0 size=    2048KiB time=00:00:04.40 bitrate=3813.1kbits/s speed=0.0135x elapsed=0:05:27.01    \nframe=  134 fps=0.4 q=34.0 size=    2048KiB time=00:00:04.40 bitrate=3813.1kbits/s speed=0.0134x elapsed=0:05:27.55    \nframe=  134 fps=0.4 q=34.0 size=    2048KiB time=00:00:04.40 bitrate=3813.1kbits/s speed=0.0134x elapsed=0:05:28.17    \nframe=  134 fps=0.4 q=34.0 size=    2048KiB time=00:00:04.40 bitrate=3813.1kbits/s speed=0.0134x elapsed=0:05:28.74    \nframe=  134 fps=0.4 q=34.0 size=    2048KiB time=00:00:04.40 bitrate=3813.1kbits/s speed=0.0134x elapsed=0:05:29.29    \nframe=  134 fps=0.4 q=34.0 size=    2048KiB time=00:00:04.40 bitrate=3813.1kbits/s speed=0.0133x elapsed=0:05:29.83    \nframe=  134 fps=0.4 q=34.0 size=    2048KiB time=00:00:04.40 bitrate=3813.1kbits/s speed=0.0133x elapsed=0:05:30.42    \nframe=  134 fps=0.4 q=34.0 size=    2048KiB time=00:00:04.40 bitrate=3813.1kbits/s speed=0.0133x elapsed=0:05:31.00    \nframe=  134 fps=0.4 q=34.0 size=    2048KiB time=00:00:04.40 bitrate=3813.1kbits/s speed=0.0133x elapsed=0:05:31.61    \nframe=  134 fps=0.4 q=34.0 size=    2048KiB time=00:00:04.40 bitrate=3813.1kbits/s speed=0.0132x elapsed=0:05:32.18    \nframe=  134 fps=0.4 q=34.0 size=    2048KiB time=00:00:04.40 bitrate=3813.1kbits/s speed=0.0132x elapsed=0:05:32.73    \nframe=  134 fps=0.4 q=34.0 size=    2048KiB time=00:00:04.40 bitrate=3813.1kbits/s speed=0.0132x elapsed=0:05:33.29    \nframe=  134 fps=0.4 q=34.0 size=    2048KiB time=00:00:04.40 bitrate=3813.1kbits/s speed=0.0132x elapsed=0:05:33.86    \nframe=  134 fps=0.4 q=34.0 size=    2048KiB time=00:00:04.40 bitrate=3813.1kbits/s speed=0.0132x elapsed=0:05:34.41    \nframe=  134 fps=0.4 q=34.0 size=    2048KiB time=00:00:04.40 bitrate=3813.1kbits/s speed=0.0131x elapsed=0:05:34.94    \nframe=  134 fps=0.4 q=34.0 size=    2048KiB time=00:00:04.40 bitrate=3813.1kbits/s speed=0.0131x elapsed=0:05:35.55    \nframe=  134 fps=0.4 q=34.0 size=    2048KiB time=00:00:04.40 bitrate=3813.1kbits/s speed=0.0131x elapsed=0:05:36.11    \nframe=  134 fps=0.4 q=34.0 size=    2048KiB time=00:00:04.40 bitrate=3813.1kbits/s speed=0.0131x elapsed=0:05:36.63    \nframe=  134 fps=0.4 q=34.0 size=    2048KiB time=00:00:04.40 bitrate=3813.1kbits/s speed=0.013x elapsed=0:05:37.20    \nframe=  134 fps=0.4 q=34.0 size=    2048KiB time=00:00:04.40 bitrate=3813.1kbits/s speed=0.013x elapsed=0:05:37.75    \nframe=  134 fps=0.4 q=34.0 size=    2048KiB time=00:00:04.40 bitrate=3813.1kbits/s speed=0.013x elapsed=0:05:38.36    \nframe=  134 fps=0.4 q=34.0 size=    2048KiB time=00:00:04.40 bitrate=3813.1kbits/s speed=0.013x elapsed=0:05:38.97    \nframe=  135 fps=0.4 q=26.3 size=    2048KiB time=00:00:04.43 bitrate=3784.4kbits/s speed=0.0131x elapsed=0:05:39.52    \nframe=  135 fps=0.4 q=26.3 size=    2048KiB time=00:00:04.43 bitrate=3784.4kbits/s speed=0.013x elapsed=0:05:40.03    \nframe=  135 fps=0.4 q=26.3 size=    2048KiB time=00:00:04.43 bitrate=3784.4kbits/s speed=0.013x elapsed=0:05:40.55    \nframe=  135 fps=0.4 q=26.3 size=    2048KiB time=00:00:04.43 bitrate=3784.4kbits/s speed=0.013x elapsed=0:05:41.10    \nframe=  135 fps=0.4 q=26.3 size=    2048KiB time=00:00:04.43 bitrate=3784.4kbits/s speed=0.013x elapsed=0:05:41.65    \nframe=  135 fps=0.4 q=26.3 size=    2048KiB time=00:00:04.43 bitrate=3784.4kbits/s speed=0.013x elapsed=0:05:42.27    \nframe=  136 fps=0.4 q=32.5 size=    2048KiB time=00:00:04.46 bitrate=3756.2kbits/s speed=0.013x elapsed=0:05:42.87    \nframe=  136 fps=0.4 q=32.5 size=    2048KiB time=00:00:04.46 bitrate=3756.2kbits/s speed=0.013x elapsed=0:05:43.38    \nframe=  136 fps=0.4 q=32.5 size=    2048KiB time=00:00:04.46 bitrate=3756.2kbits/s speed=0.013x elapsed=0:05:43.96    \nframe=  137 fps=0.4 q=33.9 size=    2048KiB time=00:00:04.50 bitrate=3728.3kbits/s speed=0.0131x elapsed=0:05:44.52    \nframe=  137 fps=0.4 q=33.9 size=    2048KiB time=00:00:04.50 bitrate=3728.3kbits/s speed=0.013x elapsed=0:05:45.06    \nframe=  138 fps=0.4 q=33.9 size=    2048KiB time=00:00:04.53 bitrate=3700.9kbits/s speed=0.0131x elapsed=0:05:45.64    \nframe=  138 fps=0.4 q=33.9 size=    2048KiB time=00:00:04.53 bitrate=3700.9kbits/s speed=0.0131x elapsed=0:05:46.21    \nframe=  138 fps=0.4 q=33.9 size=    2048KiB time=00:00:04.53 bitrate=3700.9kbits/s speed=0.0131x elapsed=0:05:46.78    \nframe=  139 fps=0.4 q=34.1 size=    2048KiB time=00:00:04.56 bitrate=3673.9kbits/s speed=0.0131x elapsed=0:05:47.32    \nframe=  139 fps=0.4 q=34.1 size=    2048KiB time=00:00:04.56 bitrate=3673.9kbits/s speed=0.0131x elapsed=0:05:47.87    \nframe=  139 fps=0.4 q=34.1 size=    2048KiB time=00:00:04.56 bitrate=3673.9kbits/s speed=0.0131x elapsed=0:05:48.44    \nframe=  139 fps=0.4 q=34.1 size=    2048KiB time=00:00:04.56 bitrate=3673.9kbits/s speed=0.0131x elapsed=0:05:48.97    \nframe=  139 fps=0.4 q=34.1 size=    2048KiB time=00:00:04.56 bitrate=3673.9kbits/s speed=0.0131x elapsed=0:05:49.52    \nframe=  140 fps=0.4 q=27.2 size=    2048KiB time=00:00:04.60 bitrate=3647.3kbits/s speed=0.0131x elapsed=0:05:50.02    \nframe=  140 fps=0.4 q=27.2 size=    2048KiB time=00:00:04.60 bitrate=3647.3kbits/s speed=0.0131x elapsed=0:05:50.57    \nframe=  140 fps=0.4 q=27.2 size=    2048KiB time=00:00:04.60 bitrate=3647.3kbits/s speed=0.0131x elapsed=0:05:51.14    \nframe=  140 fps=0.4 q=27.2 size=    2048KiB time=00:00:04.60 bitrate=3647.3kbits/s speed=0.0131x elapsed=0:05:51.72    \nframe=  141 fps=0.4 q=30.6 size=    2304KiB time=00:00:04.63 bitrate=4073.7kbits/s speed=0.0132x elapsed=0:05:52.27    \nframe=  141 fps=0.4 q=30.6 size=    2304KiB time=00:00:04.63 bitrate=4073.7kbits/s speed=0.0131x elapsed=0:05:52.79    \nframe=  141 fps=0.4 q=30.6 size=    2304KiB time=00:00:04.63 bitrate=4073.7kbits/s speed=0.0131x elapsed=0:05:53.35    \nframe=  141 fps=0.4 q=30.6 size=    2304KiB time=00:00:04.63 bitrate=4073.7kbits/s speed=0.0131x elapsed=0:05:53.88    \nframe=  141 fps=0.4 q=30.6 size=    2304KiB time=00:00:04.63 bitrate=4073.7kbits/s speed=0.0131x elapsed=0:05:54.46    \nframe=  141 fps=0.4 q=30.6 size=    2304KiB time=00:00:04.63 bitrate=4073.7kbits/s speed=0.0131x elapsed=0:05:55.00    \nframe=  141 fps=0.4 q=30.6 size=    2304KiB time=00:00:04.63 bitrate=4073.7kbits/s speed=0.013x elapsed=0:05:55.59    \nframe=  141 fps=0.4 q=30.6 size=    2304KiB time=00:00:04.63 bitrate=4073.7kbits/s speed=0.013x elapsed=0:05:56.18    \nframe=  141 fps=0.4 q=30.6 size=    2304KiB time=00:00:04.63 bitrate=4073.7kbits/s speed=0.013x elapsed=0:05:56.82    \nframe=  141 fps=0.4 q=30.6 size=    2304KiB time=00:00:04.63 bitrate=4073.7kbits/s speed=0.013x elapsed=0:05:57.44    \nframe=  141 fps=0.4 q=30.6 size=    2304KiB time=00:00:04.63 bitrate=4073.7kbits/s speed=0.0129x elapsed=0:05:58.02    \nframe=  141 fps=0.4 q=30.6 size=    2304KiB time=00:00:04.63 bitrate=4073.7kbits/s speed=0.0129x elapsed=0:05:58.63    \nframe=  142 fps=0.4 q=34.1 size=    2304KiB time=00:00:04.66 bitrate=4044.6kbits/s speed=0.013x elapsed=0:05:59.21    \nframe=  142 fps=0.4 q=34.1 size=    2304KiB time=00:00:04.66 bitrate=4044.6kbits/s speed=0.013x elapsed=0:05:59.73    \nframe=  142 fps=0.4 q=34.1 size=    2304KiB time=00:00:04.66 bitrate=4044.6kbits/s speed=0.013x elapsed=0:06:00.32    \nframe=  142 fps=0.4 q=34.1 size=    2304KiB time=00:00:04.66 bitrate=4044.6kbits/s speed=0.0129x elapsed=0:06:00.86    \nframe=  143 fps=0.4 q=34.0 size=    2304KiB time=00:00:04.66 bitrate=4044.6kbits/s speed=0.0129x elapsed=0:06:01.44    \nframe=  143 fps=0.4 q=34.0 size=    2304KiB time=00:00:04.70 bitrate=4015.9kbits/s speed=0.013x elapsed=0:06:02.01    \nframe=  143 fps=0.4 q=34.0 size=    2304KiB time=00:00:04.70 bitrate=4015.9kbits/s speed=0.013x elapsed=0:06:02.53    \nframe=  143 fps=0.4 q=34.0 size=    2304KiB time=00:00:04.70 bitrate=4015.9kbits/s speed=0.0129x elapsed=0:06:03.08    \nframe=  143 fps=0.4 q=34.0 size=    2304KiB time=00:00:04.70 bitrate=4015.9kbits/s speed=0.0129x elapsed=0:06:03.58    \nframe=  144 fps=0.4 q=27.5 size=    2304KiB time=00:00:04.73 bitrate=3987.6kbits/s speed=0.013x elapsed=0:06:04.11    \nframe=  144 fps=0.4 q=27.5 size=    2304KiB time=00:00:04.73 bitrate=3987.6kbits/s speed=0.013x elapsed=0:06:04.65    \nframe=  145 fps=0.4 q=32.7 size=    2304KiB time=00:00:04.76 bitrate=3959.7kbits/s speed=0.0131x elapsed=0:06:05.17    \nframe=  145 fps=0.4 q=32.7 size=    2304KiB time=00:00:04.76 bitrate=3959.7kbits/s speed=0.013x elapsed=0:06:05.69    \nframe=  146 fps=0.4 q=34.2 size=    2304KiB time=00:00:04.80 bitrate=3932.2kbits/s speed=0.0131x elapsed=0:06:06.22    \nframe=  146 fps=0.4 q=34.2 size=    2304KiB time=00:00:04.80 bitrate=3932.2kbits/s speed=0.0131x elapsed=0:06:06.75    \nframe=  146 fps=0.4 q=34.2 size=    2304KiB time=00:00:04.80 bitrate=3932.2kbits/s speed=0.0131x elapsed=0:06:07.28    \nframe=  146 fps=0.4 q=34.2 size=    2304KiB time=00:00:04.80 bitrate=3932.2kbits/s speed=0.0131x elapsed=0:06:07.79    \nframe=  146 fps=0.4 q=34.2 size=    2304KiB time=00:00:04.80 bitrate=3932.2kbits/s speed=0.013x elapsed=0:06:08.31    \nframe=  146 fps=0.4 q=34.2 size=    2304KiB time=00:00:04.80 bitrate=3932.2kbits/s speed=0.013x elapsed=0:06:08.82    \nframe=  146 fps=0.4 q=34.2 size=    2304KiB time=00:00:04.80 bitrate=3932.2kbits/s speed=0.013x elapsed=0:06:09.35    \nframe=  147 fps=0.4 q=30.8 size=    2304KiB time=00:00:04.83 bitrate=3905.1kbits/s speed=0.0131x elapsed=0:06:09.88    \nframe=  148 fps=0.4 q=30.5 size=    2304KiB time=00:00:04.86 bitrate=3878.4kbits/s speed=0.0131x elapsed=0:06:10.40    \nframe=  149 fps=0.4 q=34.2 size=    2304KiB time=00:00:04.90 bitrate=3852.0kbits/s speed=0.0132x elapsed=0:06:10.94    \n[mp4 @ 0000020c6949a980] Starting second pass: moving the moov atom to the beginning of the file\n[out#0/mp4 @ 0000020c694a1700] video:2397KiB audio:0KiB subtitle:0KiB other streams:0KiB global headers:2KiB muxing overhead: 0.216052%\nframe=  150 fps=0.4 q=31.5 Lsize=    2403KiB time=00:00:04.93 bitrate=3989.6kbits/s speed=0.0133x elapsed=0:06:11.07    \nx265 [info]: frame I:      1, Avg QP:30.07  kb/s: 16116.72\nx265 [info]: frame P:     38, Avg QP:26.52  kb/s: 11694.54\nx265 [info]: frame B:    111, Avg QP:32.01  kb/s: 1158.02 \nx265 [info]: Weighted P-Frames: Y:39.5% UV:34.2%\n\nencoded 150 frames in 370.36s (0.41 fps), 3926.99 kb/s, Avg QP:30.61\n",
  "seconds": 371.4261040687561,
  "probe_out": {}
}